G04 #@! TF.GenerationSoftware,KiCad,Pcbnew,7.0.6*
G04 #@! TF.CreationDate,2023-10-08T17:39:31-05:00*
G04 #@! TF.ProjectId,DogTimerPCB,446f6754-696d-4657-9250-43422e6b6963,rev?*
G04 #@! TF.SameCoordinates,Original*
G04 #@! TF.FileFunction,Copper,L2,Bot*
G04 #@! TF.FilePolarity,Positive*
%FSLAX46Y46*%
G04 Gerber Fmt 4.6, Leading zero omitted, Abs format (unit mm)*
G04 Created by KiCad (PCBNEW 7.0.6) date 2023-10-08 17:39:31*
%MOMM*%
%LPD*%
G01*
G04 APERTURE LIST*
G04 #@! TA.AperFunction,ComponentPad*
%ADD10O,2.250000X1.500000*%
G04 #@! TD*
G04 #@! TA.AperFunction,ComponentPad*
%ADD11C,1.600000*%
G04 #@! TD*
G04 #@! TA.AperFunction,Conductor*
%ADD12C,0.250000*%
G04 #@! TD*
G04 APERTURE END LIST*
D10*
X119380000Y-83820000D03*
X124460000Y-96520000D03*
X119380000Y-96520000D03*
X124460000Y-96520000D03*
X119380000Y-96520000D03*
X124460000Y-83820000D03*
X124460000Y-83820000D03*
X104140000Y-83820000D03*
X109220000Y-96520000D03*
X104140000Y-96520000D03*
X109220000Y-96520000D03*
X104140000Y-96520000D03*
X109220000Y-83820000D03*
X109220000Y-83820000D03*
X88900000Y-83820000D03*
X93980000Y-96520000D03*
X88900000Y-96520000D03*
X93980000Y-96520000D03*
X88900000Y-96520000D03*
X93980000Y-83820000D03*
X93980000Y-83820000D03*
X73660000Y-83820000D03*
X78740000Y-96520000D03*
X73660000Y-96520000D03*
X78740000Y-96520000D03*
X73660000Y-96520000D03*
X78740000Y-83820000D03*
X78740000Y-83820000D03*
X58420000Y-83820000D03*
X63500000Y-96520000D03*
X58420000Y-96520000D03*
X63500000Y-96520000D03*
X58420000Y-96520000D03*
X63500000Y-83820000D03*
X63500000Y-83820000D03*
X43180000Y-96520000D03*
X43180000Y-96520000D03*
X48260000Y-96520000D03*
X48260000Y-96520000D03*
X48260000Y-83820000D03*
X48260000Y-83820000D03*
X43180000Y-83820000D03*
D11*
X76200000Y-43180000D03*
X48260000Y-68580000D03*
X58420000Y-68580000D03*
X55880000Y-43180000D03*
X121920000Y-50800000D03*
X104140000Y-45720000D03*
X66040000Y-43180000D03*
X45720000Y-68580000D03*
X60960000Y-43180000D03*
X45720000Y-43180000D03*
X63500000Y-68580000D03*
X58420000Y-43180000D03*
X53340000Y-68580000D03*
X50800000Y-68580000D03*
X106680000Y-45720000D03*
X40640000Y-43180000D03*
X71120000Y-43180000D03*
X68580000Y-68580000D03*
X121920000Y-60960000D03*
X76200000Y-68580000D03*
X43180000Y-68580000D03*
X43180000Y-43180000D03*
X73660000Y-68580000D03*
X73660000Y-43180000D03*
X55880000Y-68580000D03*
X121920000Y-58420000D03*
X66040000Y-68580000D03*
X121920000Y-53340000D03*
X101600000Y-45720000D03*
X48260000Y-43180000D03*
X63500000Y-43180000D03*
X40640000Y-68580000D03*
X121920000Y-55880000D03*
X60960000Y-68580000D03*
X53340000Y-43180000D03*
X50800000Y-43180000D03*
X71120000Y-68580000D03*
X68580000Y-43180000D03*
D12*
X109220000Y-76200000D02*
X109220000Y-83820000D01*
X43180000Y-88900000D02*
X43180000Y-83820000D01*
X93980000Y-76200000D02*
X93980000Y-83820000D01*
X124460000Y-76200000D02*
X124460000Y-83820000D01*
X38100000Y-86360000D02*
X40640000Y-88900000D01*
X63500000Y-73660000D02*
X68580000Y-78740000D01*
X43180000Y-43180000D02*
X43180000Y-45720000D01*
X55880000Y-45720000D02*
X55880000Y-43180000D01*
X68580000Y-58420000D02*
X55880000Y-45720000D01*
X53340000Y-88900000D02*
X68580000Y-88900000D01*
X104140000Y-83820000D02*
X99060000Y-88900000D01*
X68580000Y-60960000D02*
X53340000Y-45720000D01*
X50800000Y-45720000D02*
X50800000Y-43180000D01*
X50800000Y-68580000D02*
X50800000Y-81280000D01*
X68580000Y-63500000D02*
X50800000Y-45720000D01*
X60960000Y-68580000D02*
X60960000Y-75976554D01*
X78740000Y-81280000D02*
X78740000Y-83820000D01*
X68580000Y-88900000D02*
X83820000Y-88900000D01*
X88900000Y-83820000D02*
X83820000Y-88900000D01*
X106680000Y-58420000D02*
X124460000Y-76200000D01*
X63500000Y-71120000D02*
X63500000Y-73660000D01*
X83820000Y-88900000D02*
X99060000Y-88900000D01*
X43180000Y-88900000D02*
X53340000Y-88900000D01*
X68580000Y-63500000D02*
X81280000Y-63500000D01*
X58420000Y-83820000D02*
X53340000Y-88900000D01*
X38100000Y-50800000D02*
X38100000Y-86360000D01*
X63528835Y-78545389D02*
X63528835Y-83820000D01*
X114300000Y-88900000D02*
X119380000Y-83820000D01*
X99060000Y-88900000D02*
X114300000Y-88900000D01*
X63500000Y-68580000D02*
X63500000Y-71120000D01*
X60960000Y-75976554D02*
X63528835Y-78545389D01*
X50800000Y-81280000D02*
X48260000Y-83820000D01*
X40640000Y-88900000D02*
X43180000Y-88900000D01*
X93980000Y-60960000D02*
X109220000Y-76200000D01*
X93980000Y-60960000D02*
X68580000Y-60960000D01*
X43180000Y-45720000D02*
X38100000Y-50800000D01*
X68580000Y-78740000D02*
X76200000Y-78740000D01*
X81280000Y-63500000D02*
X93980000Y-76200000D01*
X53340000Y-45720000D02*
X53340000Y-43180000D01*
X73660000Y-83820000D02*
X68580000Y-88900000D01*
X68580000Y-58420000D02*
X106680000Y-58420000D01*
X76200000Y-78740000D02*
X78740000Y-81280000D01*
M02*
