G04 #@! TF.GenerationSoftware,KiCad,Pcbnew,7.0.6*
G04 #@! TF.CreationDate,2023-10-08T17:39:31-05:00*
G04 #@! TF.ProjectId,DogTimerPCB,446f6754-696d-4657-9250-43422e6b6963,rev?*
G04 #@! TF.SameCoordinates,Original*
G04 #@! TF.FileFunction,Legend,Top*
G04 #@! TF.FilePolarity,Positive*
%FSLAX46Y46*%
G04 Gerber Fmt 4.6, Leading zero omitted, Abs format (unit mm)*
G04 Created by KiCad (PCBNEW 7.0.6) date 2023-10-08 17:39:31*
%MOMM*%
%LPD*%
G01*
G04 APERTURE LIST*
%ADD10C,0.150000*%
%ADD11C,0.160000*%
G04 APERTURE END LIST*
D10*
X68665624Y-82696845D02*
X68665624Y-97442777D01*
X117452859Y-49560203D02*
X126419980Y-49560203D01*
X126419980Y-62032652D01*
X117452859Y-62032652D01*
X117452859Y-49560203D01*
X33592839Y-42189713D02*
X82169011Y-42189713D01*
X82169011Y-70029231D01*
X33592839Y-70029231D01*
X33592839Y-42189713D01*
X100364308Y-44484308D02*
X107809735Y-44484308D01*
X107809735Y-47038579D01*
X100364308Y-47038579D01*
X100364308Y-44484308D01*
X99099488Y-82733075D02*
X99099488Y-97479007D01*
X39671153Y-82695737D02*
X39671153Y-97450726D01*
X53376230Y-82696845D02*
X53376230Y-97442777D01*
X83733832Y-82713852D02*
X83733832Y-97459784D01*
X39671153Y-82695737D02*
X127793493Y-82695737D01*
X39671153Y-97450726D02*
X127796511Y-97468841D01*
X114425112Y-82696845D02*
X114425112Y-97442777D01*
X127793493Y-82695737D02*
X127796511Y-97468841D01*
D11*
X42570476Y-70719870D02*
X42494286Y-70681775D01*
X42494286Y-70681775D02*
X42380000Y-70681775D01*
X42380000Y-70681775D02*
X42265714Y-70719870D01*
X42265714Y-70719870D02*
X42189524Y-70796060D01*
X42189524Y-70796060D02*
X42151429Y-70872251D01*
X42151429Y-70872251D02*
X42113333Y-71024632D01*
X42113333Y-71024632D02*
X42113333Y-71138918D01*
X42113333Y-71138918D02*
X42151429Y-71291299D01*
X42151429Y-71291299D02*
X42189524Y-71367489D01*
X42189524Y-71367489D02*
X42265714Y-71443680D01*
X42265714Y-71443680D02*
X42380000Y-71481775D01*
X42380000Y-71481775D02*
X42456191Y-71481775D01*
X42456191Y-71481775D02*
X42570476Y-71443680D01*
X42570476Y-71443680D02*
X42608572Y-71405584D01*
X42608572Y-71405584D02*
X42608572Y-71138918D01*
X42608572Y-71138918D02*
X42456191Y-71138918D01*
X42951429Y-71481775D02*
X42951429Y-70681775D01*
X42951429Y-70681775D02*
X43408572Y-71481775D01*
X43408572Y-71481775D02*
X43408572Y-70681775D01*
X43789524Y-71481775D02*
X43789524Y-70681775D01*
X43789524Y-70681775D02*
X43980000Y-70681775D01*
X43980000Y-70681775D02*
X44094286Y-70719870D01*
X44094286Y-70719870D02*
X44170476Y-70796060D01*
X44170476Y-70796060D02*
X44208571Y-70872251D01*
X44208571Y-70872251D02*
X44246667Y-71024632D01*
X44246667Y-71024632D02*
X44246667Y-71138918D01*
X44246667Y-71138918D02*
X44208571Y-71291299D01*
X44208571Y-71291299D02*
X44170476Y-71367489D01*
X44170476Y-71367489D02*
X44094286Y-71443680D01*
X44094286Y-71443680D02*
X43980000Y-71481775D01*
X43980000Y-71481775D02*
X43789524Y-71481775D01*
X72688571Y-71481775D02*
X72688571Y-70681775D01*
X72688571Y-70681775D02*
X72879047Y-70681775D01*
X72879047Y-70681775D02*
X72993333Y-70719870D01*
X72993333Y-70719870D02*
X73069523Y-70796060D01*
X73069523Y-70796060D02*
X73107618Y-70872251D01*
X73107618Y-70872251D02*
X73145714Y-71024632D01*
X73145714Y-71024632D02*
X73145714Y-71138918D01*
X73145714Y-71138918D02*
X73107618Y-71291299D01*
X73107618Y-71291299D02*
X73069523Y-71367489D01*
X73069523Y-71367489D02*
X72993333Y-71443680D01*
X72993333Y-71443680D02*
X72879047Y-71481775D01*
X72879047Y-71481775D02*
X72688571Y-71481775D01*
X73450475Y-70757965D02*
X73488571Y-70719870D01*
X73488571Y-70719870D02*
X73564761Y-70681775D01*
X73564761Y-70681775D02*
X73755237Y-70681775D01*
X73755237Y-70681775D02*
X73831428Y-70719870D01*
X73831428Y-70719870D02*
X73869523Y-70757965D01*
X73869523Y-70757965D02*
X73907618Y-70834156D01*
X73907618Y-70834156D02*
X73907618Y-70910346D01*
X73907618Y-70910346D02*
X73869523Y-71024632D01*
X73869523Y-71024632D02*
X73412380Y-71481775D01*
X73412380Y-71481775D02*
X73907618Y-71481775D01*
X74212380Y-70757965D02*
X74250476Y-70719870D01*
X74250476Y-70719870D02*
X74326666Y-70681775D01*
X74326666Y-70681775D02*
X74517142Y-70681775D01*
X74517142Y-70681775D02*
X74593333Y-70719870D01*
X74593333Y-70719870D02*
X74631428Y-70757965D01*
X74631428Y-70757965D02*
X74669523Y-70834156D01*
X74669523Y-70834156D02*
X74669523Y-70910346D01*
X74669523Y-70910346D02*
X74631428Y-71024632D01*
X74631428Y-71024632D02*
X74174285Y-71481775D01*
X74174285Y-71481775D02*
X74669523Y-71481775D01*
X44748571Y-71481775D02*
X44748571Y-70681775D01*
X44748571Y-70681775D02*
X44939047Y-70681775D01*
X44939047Y-70681775D02*
X45053333Y-70719870D01*
X45053333Y-70719870D02*
X45129523Y-70796060D01*
X45129523Y-70796060D02*
X45167618Y-70872251D01*
X45167618Y-70872251D02*
X45205714Y-71024632D01*
X45205714Y-71024632D02*
X45205714Y-71138918D01*
X45205714Y-71138918D02*
X45167618Y-71291299D01*
X45167618Y-71291299D02*
X45129523Y-71367489D01*
X45129523Y-71367489D02*
X45053333Y-71443680D01*
X45053333Y-71443680D02*
X44939047Y-71481775D01*
X44939047Y-71481775D02*
X44748571Y-71481775D01*
X45967618Y-71481775D02*
X45510475Y-71481775D01*
X45739047Y-71481775D02*
X45739047Y-70681775D01*
X45739047Y-70681775D02*
X45662856Y-70796060D01*
X45662856Y-70796060D02*
X45586666Y-70872251D01*
X45586666Y-70872251D02*
X45510475Y-70910346D01*
X46691428Y-70681775D02*
X46310476Y-70681775D01*
X46310476Y-70681775D02*
X46272380Y-71062727D01*
X46272380Y-71062727D02*
X46310476Y-71024632D01*
X46310476Y-71024632D02*
X46386666Y-70986537D01*
X46386666Y-70986537D02*
X46577142Y-70986537D01*
X46577142Y-70986537D02*
X46653333Y-71024632D01*
X46653333Y-71024632D02*
X46691428Y-71062727D01*
X46691428Y-71062727D02*
X46729523Y-71138918D01*
X46729523Y-71138918D02*
X46729523Y-71329394D01*
X46729523Y-71329394D02*
X46691428Y-71405584D01*
X46691428Y-71405584D02*
X46653333Y-71443680D01*
X46653333Y-71443680D02*
X46577142Y-71481775D01*
X46577142Y-71481775D02*
X46386666Y-71481775D01*
X46386666Y-71481775D02*
X46310476Y-71443680D01*
X46310476Y-71443680D02*
X46272380Y-71405584D01*
X65068571Y-41001775D02*
X65068571Y-40201775D01*
X65068571Y-40201775D02*
X65259047Y-40201775D01*
X65259047Y-40201775D02*
X65373333Y-40239870D01*
X65373333Y-40239870D02*
X65449523Y-40316060D01*
X65449523Y-40316060D02*
X65487618Y-40392251D01*
X65487618Y-40392251D02*
X65525714Y-40544632D01*
X65525714Y-40544632D02*
X65525714Y-40658918D01*
X65525714Y-40658918D02*
X65487618Y-40811299D01*
X65487618Y-40811299D02*
X65449523Y-40887489D01*
X65449523Y-40887489D02*
X65373333Y-40963680D01*
X65373333Y-40963680D02*
X65259047Y-41001775D01*
X65259047Y-41001775D02*
X65068571Y-41001775D01*
X65792380Y-40201775D02*
X66287618Y-40201775D01*
X66287618Y-40201775D02*
X66020952Y-40506537D01*
X66020952Y-40506537D02*
X66135237Y-40506537D01*
X66135237Y-40506537D02*
X66211428Y-40544632D01*
X66211428Y-40544632D02*
X66249523Y-40582727D01*
X66249523Y-40582727D02*
X66287618Y-40658918D01*
X66287618Y-40658918D02*
X66287618Y-40849394D01*
X66287618Y-40849394D02*
X66249523Y-40925584D01*
X66249523Y-40925584D02*
X66211428Y-40963680D01*
X66211428Y-40963680D02*
X66135237Y-41001775D01*
X66135237Y-41001775D02*
X65906666Y-41001775D01*
X65906666Y-41001775D02*
X65830475Y-40963680D01*
X65830475Y-40963680D02*
X65792380Y-40925584D01*
X67011428Y-40201775D02*
X66630476Y-40201775D01*
X66630476Y-40201775D02*
X66592380Y-40582727D01*
X66592380Y-40582727D02*
X66630476Y-40544632D01*
X66630476Y-40544632D02*
X66706666Y-40506537D01*
X66706666Y-40506537D02*
X66897142Y-40506537D01*
X66897142Y-40506537D02*
X66973333Y-40544632D01*
X66973333Y-40544632D02*
X67011428Y-40582727D01*
X67011428Y-40582727D02*
X67049523Y-40658918D01*
X67049523Y-40658918D02*
X67049523Y-40849394D01*
X67049523Y-40849394D02*
X67011428Y-40925584D01*
X67011428Y-40925584D02*
X66973333Y-40963680D01*
X66973333Y-40963680D02*
X66897142Y-41001775D01*
X66897142Y-41001775D02*
X66706666Y-41001775D01*
X66706666Y-41001775D02*
X66630476Y-40963680D01*
X66630476Y-40963680D02*
X66592380Y-40925584D01*
X123488571Y-81641775D02*
X123488571Y-80841775D01*
X123488571Y-80841775D02*
X123679047Y-80841775D01*
X123679047Y-80841775D02*
X123793333Y-80879870D01*
X123793333Y-80879870D02*
X123869523Y-80956060D01*
X123869523Y-80956060D02*
X123907618Y-81032251D01*
X123907618Y-81032251D02*
X123945714Y-81184632D01*
X123945714Y-81184632D02*
X123945714Y-81298918D01*
X123945714Y-81298918D02*
X123907618Y-81451299D01*
X123907618Y-81451299D02*
X123869523Y-81527489D01*
X123869523Y-81527489D02*
X123793333Y-81603680D01*
X123793333Y-81603680D02*
X123679047Y-81641775D01*
X123679047Y-81641775D02*
X123488571Y-81641775D01*
X124250475Y-80917965D02*
X124288571Y-80879870D01*
X124288571Y-80879870D02*
X124364761Y-80841775D01*
X124364761Y-80841775D02*
X124555237Y-80841775D01*
X124555237Y-80841775D02*
X124631428Y-80879870D01*
X124631428Y-80879870D02*
X124669523Y-80917965D01*
X124669523Y-80917965D02*
X124707618Y-80994156D01*
X124707618Y-80994156D02*
X124707618Y-81070346D01*
X124707618Y-81070346D02*
X124669523Y-81184632D01*
X124669523Y-81184632D02*
X124212380Y-81641775D01*
X124212380Y-81641775D02*
X124707618Y-81641775D01*
X125393333Y-80841775D02*
X125240952Y-80841775D01*
X125240952Y-80841775D02*
X125164761Y-80879870D01*
X125164761Y-80879870D02*
X125126666Y-80917965D01*
X125126666Y-80917965D02*
X125050476Y-81032251D01*
X125050476Y-81032251D02*
X125012380Y-81184632D01*
X125012380Y-81184632D02*
X125012380Y-81489394D01*
X125012380Y-81489394D02*
X125050476Y-81565584D01*
X125050476Y-81565584D02*
X125088571Y-81603680D01*
X125088571Y-81603680D02*
X125164761Y-81641775D01*
X125164761Y-81641775D02*
X125317142Y-81641775D01*
X125317142Y-81641775D02*
X125393333Y-81603680D01*
X125393333Y-81603680D02*
X125431428Y-81565584D01*
X125431428Y-81565584D02*
X125469523Y-81489394D01*
X125469523Y-81489394D02*
X125469523Y-81298918D01*
X125469523Y-81298918D02*
X125431428Y-81222727D01*
X125431428Y-81222727D02*
X125393333Y-81184632D01*
X125393333Y-81184632D02*
X125317142Y-81146537D01*
X125317142Y-81146537D02*
X125164761Y-81146537D01*
X125164761Y-81146537D02*
X125088571Y-81184632D01*
X125088571Y-81184632D02*
X125050476Y-81222727D01*
X125050476Y-81222727D02*
X125012380Y-81298918D01*
X75228571Y-71481775D02*
X75228571Y-70681775D01*
X75228571Y-70681775D02*
X75419047Y-70681775D01*
X75419047Y-70681775D02*
X75533333Y-70719870D01*
X75533333Y-70719870D02*
X75609523Y-70796060D01*
X75609523Y-70796060D02*
X75647618Y-70872251D01*
X75647618Y-70872251D02*
X75685714Y-71024632D01*
X75685714Y-71024632D02*
X75685714Y-71138918D01*
X75685714Y-71138918D02*
X75647618Y-71291299D01*
X75647618Y-71291299D02*
X75609523Y-71367489D01*
X75609523Y-71367489D02*
X75533333Y-71443680D01*
X75533333Y-71443680D02*
X75419047Y-71481775D01*
X75419047Y-71481775D02*
X75228571Y-71481775D01*
X75990475Y-70757965D02*
X76028571Y-70719870D01*
X76028571Y-70719870D02*
X76104761Y-70681775D01*
X76104761Y-70681775D02*
X76295237Y-70681775D01*
X76295237Y-70681775D02*
X76371428Y-70719870D01*
X76371428Y-70719870D02*
X76409523Y-70757965D01*
X76409523Y-70757965D02*
X76447618Y-70834156D01*
X76447618Y-70834156D02*
X76447618Y-70910346D01*
X76447618Y-70910346D02*
X76409523Y-71024632D01*
X76409523Y-71024632D02*
X75952380Y-71481775D01*
X75952380Y-71481775D02*
X76447618Y-71481775D01*
X76714285Y-70681775D02*
X77209523Y-70681775D01*
X77209523Y-70681775D02*
X76942857Y-70986537D01*
X76942857Y-70986537D02*
X77057142Y-70986537D01*
X77057142Y-70986537D02*
X77133333Y-71024632D01*
X77133333Y-71024632D02*
X77171428Y-71062727D01*
X77171428Y-71062727D02*
X77209523Y-71138918D01*
X77209523Y-71138918D02*
X77209523Y-71329394D01*
X77209523Y-71329394D02*
X77171428Y-71405584D01*
X77171428Y-71405584D02*
X77133333Y-71443680D01*
X77133333Y-71443680D02*
X77057142Y-71481775D01*
X77057142Y-71481775D02*
X76828571Y-71481775D01*
X76828571Y-71481775D02*
X76752380Y-71443680D01*
X76752380Y-71443680D02*
X76714285Y-71405584D01*
X47288571Y-41001775D02*
X47288571Y-40201775D01*
X47288571Y-40201775D02*
X47479047Y-40201775D01*
X47479047Y-40201775D02*
X47593333Y-40239870D01*
X47593333Y-40239870D02*
X47669523Y-40316060D01*
X47669523Y-40316060D02*
X47707618Y-40392251D01*
X47707618Y-40392251D02*
X47745714Y-40544632D01*
X47745714Y-40544632D02*
X47745714Y-40658918D01*
X47745714Y-40658918D02*
X47707618Y-40811299D01*
X47707618Y-40811299D02*
X47669523Y-40887489D01*
X47669523Y-40887489D02*
X47593333Y-40963680D01*
X47593333Y-40963680D02*
X47479047Y-41001775D01*
X47479047Y-41001775D02*
X47288571Y-41001775D01*
X48507618Y-41001775D02*
X48050475Y-41001775D01*
X48279047Y-41001775D02*
X48279047Y-40201775D01*
X48279047Y-40201775D02*
X48202856Y-40316060D01*
X48202856Y-40316060D02*
X48126666Y-40392251D01*
X48126666Y-40392251D02*
X48050475Y-40430346D01*
X48812380Y-40277965D02*
X48850476Y-40239870D01*
X48850476Y-40239870D02*
X48926666Y-40201775D01*
X48926666Y-40201775D02*
X49117142Y-40201775D01*
X49117142Y-40201775D02*
X49193333Y-40239870D01*
X49193333Y-40239870D02*
X49231428Y-40277965D01*
X49231428Y-40277965D02*
X49269523Y-40354156D01*
X49269523Y-40354156D02*
X49269523Y-40430346D01*
X49269523Y-40430346D02*
X49231428Y-40544632D01*
X49231428Y-40544632D02*
X48774285Y-41001775D01*
X48774285Y-41001775D02*
X49269523Y-41001775D01*
X118103809Y-59086537D02*
X118065714Y-59048441D01*
X118065714Y-59048441D02*
X117989523Y-58934156D01*
X117989523Y-58934156D02*
X117951428Y-58857965D01*
X117951428Y-58857965D02*
X117913333Y-58743680D01*
X117913333Y-58743680D02*
X117875238Y-58553203D01*
X117875238Y-58553203D02*
X117875238Y-58400822D01*
X117875238Y-58400822D02*
X117913333Y-58210346D01*
X117913333Y-58210346D02*
X117951428Y-58096060D01*
X117951428Y-58096060D02*
X117989523Y-58019870D01*
X117989523Y-58019870D02*
X118065714Y-57905584D01*
X118065714Y-57905584D02*
X118103809Y-57867489D01*
X118408571Y-58781775D02*
X118408571Y-57981775D01*
X118408571Y-57981775D02*
X118599047Y-57981775D01*
X118599047Y-57981775D02*
X118713333Y-58019870D01*
X118713333Y-58019870D02*
X118789523Y-58096060D01*
X118789523Y-58096060D02*
X118827618Y-58172251D01*
X118827618Y-58172251D02*
X118865714Y-58324632D01*
X118865714Y-58324632D02*
X118865714Y-58438918D01*
X118865714Y-58438918D02*
X118827618Y-58591299D01*
X118827618Y-58591299D02*
X118789523Y-58667489D01*
X118789523Y-58667489D02*
X118713333Y-58743680D01*
X118713333Y-58743680D02*
X118599047Y-58781775D01*
X118599047Y-58781775D02*
X118408571Y-58781775D01*
X119170475Y-58057965D02*
X119208571Y-58019870D01*
X119208571Y-58019870D02*
X119284761Y-57981775D01*
X119284761Y-57981775D02*
X119475237Y-57981775D01*
X119475237Y-57981775D02*
X119551428Y-58019870D01*
X119551428Y-58019870D02*
X119589523Y-58057965D01*
X119589523Y-58057965D02*
X119627618Y-58134156D01*
X119627618Y-58134156D02*
X119627618Y-58210346D01*
X119627618Y-58210346D02*
X119589523Y-58324632D01*
X119589523Y-58324632D02*
X119132380Y-58781775D01*
X119132380Y-58781775D02*
X119627618Y-58781775D01*
X119932380Y-58057965D02*
X119970476Y-58019870D01*
X119970476Y-58019870D02*
X120046666Y-57981775D01*
X120046666Y-57981775D02*
X120237142Y-57981775D01*
X120237142Y-57981775D02*
X120313333Y-58019870D01*
X120313333Y-58019870D02*
X120351428Y-58057965D01*
X120351428Y-58057965D02*
X120389523Y-58134156D01*
X120389523Y-58134156D02*
X120389523Y-58210346D01*
X120389523Y-58210346D02*
X120351428Y-58324632D01*
X120351428Y-58324632D02*
X119894285Y-58781775D01*
X119894285Y-58781775D02*
X120389523Y-58781775D01*
X120656190Y-59086537D02*
X120694285Y-59048441D01*
X120694285Y-59048441D02*
X120770476Y-58934156D01*
X120770476Y-58934156D02*
X120808571Y-58857965D01*
X120808571Y-58857965D02*
X120846666Y-58743680D01*
X120846666Y-58743680D02*
X120884762Y-58553203D01*
X120884762Y-58553203D02*
X120884762Y-58400822D01*
X120884762Y-58400822D02*
X120846666Y-58210346D01*
X120846666Y-58210346D02*
X120808571Y-58096060D01*
X120808571Y-58096060D02*
X120770476Y-58019870D01*
X120770476Y-58019870D02*
X120694285Y-57905584D01*
X120694285Y-57905584D02*
X120656190Y-57867489D01*
X57448571Y-41001775D02*
X57448571Y-40201775D01*
X57448571Y-40201775D02*
X57639047Y-40201775D01*
X57639047Y-40201775D02*
X57753333Y-40239870D01*
X57753333Y-40239870D02*
X57829523Y-40316060D01*
X57829523Y-40316060D02*
X57867618Y-40392251D01*
X57867618Y-40392251D02*
X57905714Y-40544632D01*
X57905714Y-40544632D02*
X57905714Y-40658918D01*
X57905714Y-40658918D02*
X57867618Y-40811299D01*
X57867618Y-40811299D02*
X57829523Y-40887489D01*
X57829523Y-40887489D02*
X57753333Y-40963680D01*
X57753333Y-40963680D02*
X57639047Y-41001775D01*
X57639047Y-41001775D02*
X57448571Y-41001775D01*
X58210475Y-40277965D02*
X58248571Y-40239870D01*
X58248571Y-40239870D02*
X58324761Y-40201775D01*
X58324761Y-40201775D02*
X58515237Y-40201775D01*
X58515237Y-40201775D02*
X58591428Y-40239870D01*
X58591428Y-40239870D02*
X58629523Y-40277965D01*
X58629523Y-40277965D02*
X58667618Y-40354156D01*
X58667618Y-40354156D02*
X58667618Y-40430346D01*
X58667618Y-40430346D02*
X58629523Y-40544632D01*
X58629523Y-40544632D02*
X58172380Y-41001775D01*
X58172380Y-41001775D02*
X58667618Y-41001775D01*
X59391428Y-40201775D02*
X59010476Y-40201775D01*
X59010476Y-40201775D02*
X58972380Y-40582727D01*
X58972380Y-40582727D02*
X59010476Y-40544632D01*
X59010476Y-40544632D02*
X59086666Y-40506537D01*
X59086666Y-40506537D02*
X59277142Y-40506537D01*
X59277142Y-40506537D02*
X59353333Y-40544632D01*
X59353333Y-40544632D02*
X59391428Y-40582727D01*
X59391428Y-40582727D02*
X59429523Y-40658918D01*
X59429523Y-40658918D02*
X59429523Y-40849394D01*
X59429523Y-40849394D02*
X59391428Y-40925584D01*
X59391428Y-40925584D02*
X59353333Y-40963680D01*
X59353333Y-40963680D02*
X59277142Y-41001775D01*
X59277142Y-41001775D02*
X59086666Y-41001775D01*
X59086666Y-41001775D02*
X59010476Y-40963680D01*
X59010476Y-40963680D02*
X58972380Y-40925584D01*
X48603358Y-57765489D02*
X48936691Y-57765489D01*
X49079548Y-58289299D02*
X48603358Y-58289299D01*
X48603358Y-58289299D02*
X48603358Y-57289299D01*
X48603358Y-57289299D02*
X49079548Y-57289299D01*
X49460501Y-58241680D02*
X49603358Y-58289299D01*
X49603358Y-58289299D02*
X49841453Y-58289299D01*
X49841453Y-58289299D02*
X49936691Y-58241680D01*
X49936691Y-58241680D02*
X49984310Y-58194060D01*
X49984310Y-58194060D02*
X50031929Y-58098822D01*
X50031929Y-58098822D02*
X50031929Y-58003584D01*
X50031929Y-58003584D02*
X49984310Y-57908346D01*
X49984310Y-57908346D02*
X49936691Y-57860727D01*
X49936691Y-57860727D02*
X49841453Y-57813108D01*
X49841453Y-57813108D02*
X49650977Y-57765489D01*
X49650977Y-57765489D02*
X49555739Y-57717870D01*
X49555739Y-57717870D02*
X49508120Y-57670251D01*
X49508120Y-57670251D02*
X49460501Y-57575013D01*
X49460501Y-57575013D02*
X49460501Y-57479775D01*
X49460501Y-57479775D02*
X49508120Y-57384537D01*
X49508120Y-57384537D02*
X49555739Y-57336918D01*
X49555739Y-57336918D02*
X49650977Y-57289299D01*
X49650977Y-57289299D02*
X49889072Y-57289299D01*
X49889072Y-57289299D02*
X50031929Y-57336918D01*
X50460501Y-58289299D02*
X50460501Y-57289299D01*
X50460501Y-57289299D02*
X50841453Y-57289299D01*
X50841453Y-57289299D02*
X50936691Y-57336918D01*
X50936691Y-57336918D02*
X50984310Y-57384537D01*
X50984310Y-57384537D02*
X51031929Y-57479775D01*
X51031929Y-57479775D02*
X51031929Y-57622632D01*
X51031929Y-57622632D02*
X50984310Y-57717870D01*
X50984310Y-57717870D02*
X50936691Y-57765489D01*
X50936691Y-57765489D02*
X50841453Y-57813108D01*
X50841453Y-57813108D02*
X50460501Y-57813108D01*
X51460501Y-57908346D02*
X52222406Y-57908346D01*
X52603358Y-57289299D02*
X53222405Y-57289299D01*
X53222405Y-57289299D02*
X52889072Y-57670251D01*
X52889072Y-57670251D02*
X53031929Y-57670251D01*
X53031929Y-57670251D02*
X53127167Y-57717870D01*
X53127167Y-57717870D02*
X53174786Y-57765489D01*
X53174786Y-57765489D02*
X53222405Y-57860727D01*
X53222405Y-57860727D02*
X53222405Y-58098822D01*
X53222405Y-58098822D02*
X53174786Y-58194060D01*
X53174786Y-58194060D02*
X53127167Y-58241680D01*
X53127167Y-58241680D02*
X53031929Y-58289299D01*
X53031929Y-58289299D02*
X52746215Y-58289299D01*
X52746215Y-58289299D02*
X52650977Y-58241680D01*
X52650977Y-58241680D02*
X52603358Y-58194060D01*
X53603358Y-57384537D02*
X53650977Y-57336918D01*
X53650977Y-57336918D02*
X53746215Y-57289299D01*
X53746215Y-57289299D02*
X53984310Y-57289299D01*
X53984310Y-57289299D02*
X54079548Y-57336918D01*
X54079548Y-57336918D02*
X54127167Y-57384537D01*
X54127167Y-57384537D02*
X54174786Y-57479775D01*
X54174786Y-57479775D02*
X54174786Y-57575013D01*
X54174786Y-57575013D02*
X54127167Y-57717870D01*
X54127167Y-57717870D02*
X53555739Y-58289299D01*
X53555739Y-58289299D02*
X54174786Y-58289299D01*
X55365263Y-58289299D02*
X55365263Y-57289299D01*
X55365263Y-57289299D02*
X55603358Y-57289299D01*
X55603358Y-57289299D02*
X55746215Y-57336918D01*
X55746215Y-57336918D02*
X55841453Y-57432156D01*
X55841453Y-57432156D02*
X55889072Y-57527394D01*
X55889072Y-57527394D02*
X55936691Y-57717870D01*
X55936691Y-57717870D02*
X55936691Y-57860727D01*
X55936691Y-57860727D02*
X55889072Y-58051203D01*
X55889072Y-58051203D02*
X55841453Y-58146441D01*
X55841453Y-58146441D02*
X55746215Y-58241680D01*
X55746215Y-58241680D02*
X55603358Y-58289299D01*
X55603358Y-58289299D02*
X55365263Y-58289299D01*
X56746215Y-58241680D02*
X56650977Y-58289299D01*
X56650977Y-58289299D02*
X56460501Y-58289299D01*
X56460501Y-58289299D02*
X56365263Y-58241680D01*
X56365263Y-58241680D02*
X56317644Y-58146441D01*
X56317644Y-58146441D02*
X56317644Y-57765489D01*
X56317644Y-57765489D02*
X56365263Y-57670251D01*
X56365263Y-57670251D02*
X56460501Y-57622632D01*
X56460501Y-57622632D02*
X56650977Y-57622632D01*
X56650977Y-57622632D02*
X56746215Y-57670251D01*
X56746215Y-57670251D02*
X56793834Y-57765489D01*
X56793834Y-57765489D02*
X56793834Y-57860727D01*
X56793834Y-57860727D02*
X56317644Y-57955965D01*
X57127168Y-57622632D02*
X57365263Y-58289299D01*
X57365263Y-58289299D02*
X57603358Y-57622632D01*
X58746216Y-58289299D02*
X58746216Y-57289299D01*
X59317644Y-58289299D02*
X58889073Y-57717870D01*
X59317644Y-57289299D02*
X58746216Y-57860727D01*
X59746216Y-58289299D02*
X59746216Y-57622632D01*
X59746216Y-57289299D02*
X59698597Y-57336918D01*
X59698597Y-57336918D02*
X59746216Y-57384537D01*
X59746216Y-57384537D02*
X59793835Y-57336918D01*
X59793835Y-57336918D02*
X59746216Y-57289299D01*
X59746216Y-57289299D02*
X59746216Y-57384537D01*
X60079549Y-57622632D02*
X60460501Y-57622632D01*
X60222406Y-57289299D02*
X60222406Y-58146441D01*
X60222406Y-58146441D02*
X60270025Y-58241680D01*
X60270025Y-58241680D02*
X60365263Y-58289299D01*
X60365263Y-58289299D02*
X60460501Y-58289299D01*
X119205713Y-90785489D02*
X119348570Y-90833108D01*
X119348570Y-90833108D02*
X119396189Y-90880727D01*
X119396189Y-90880727D02*
X119443808Y-90975965D01*
X119443808Y-90975965D02*
X119443808Y-91118822D01*
X119443808Y-91118822D02*
X119396189Y-91214060D01*
X119396189Y-91214060D02*
X119348570Y-91261680D01*
X119348570Y-91261680D02*
X119253332Y-91309299D01*
X119253332Y-91309299D02*
X118872380Y-91309299D01*
X118872380Y-91309299D02*
X118872380Y-90309299D01*
X118872380Y-90309299D02*
X119205713Y-90309299D01*
X119205713Y-90309299D02*
X119300951Y-90356918D01*
X119300951Y-90356918D02*
X119348570Y-90404537D01*
X119348570Y-90404537D02*
X119396189Y-90499775D01*
X119396189Y-90499775D02*
X119396189Y-90595013D01*
X119396189Y-90595013D02*
X119348570Y-90690251D01*
X119348570Y-90690251D02*
X119300951Y-90737870D01*
X119300951Y-90737870D02*
X119205713Y-90785489D01*
X119205713Y-90785489D02*
X118872380Y-90785489D01*
X120300951Y-90642632D02*
X120300951Y-91309299D01*
X119872380Y-90642632D02*
X119872380Y-91166441D01*
X119872380Y-91166441D02*
X119919999Y-91261680D01*
X119919999Y-91261680D02*
X120015237Y-91309299D01*
X120015237Y-91309299D02*
X120158094Y-91309299D01*
X120158094Y-91309299D02*
X120253332Y-91261680D01*
X120253332Y-91261680D02*
X120300951Y-91214060D01*
X120634285Y-90642632D02*
X121015237Y-90642632D01*
X120777142Y-90309299D02*
X120777142Y-91166441D01*
X120777142Y-91166441D02*
X120824761Y-91261680D01*
X120824761Y-91261680D02*
X120919999Y-91309299D01*
X120919999Y-91309299D02*
X121015237Y-91309299D01*
X121205714Y-90642632D02*
X121586666Y-90642632D01*
X121348571Y-90309299D02*
X121348571Y-91166441D01*
X121348571Y-91166441D02*
X121396190Y-91261680D01*
X121396190Y-91261680D02*
X121491428Y-91309299D01*
X121491428Y-91309299D02*
X121586666Y-91309299D01*
X122062857Y-91309299D02*
X121967619Y-91261680D01*
X121967619Y-91261680D02*
X121920000Y-91214060D01*
X121920000Y-91214060D02*
X121872381Y-91118822D01*
X121872381Y-91118822D02*
X121872381Y-90833108D01*
X121872381Y-90833108D02*
X121920000Y-90737870D01*
X121920000Y-90737870D02*
X121967619Y-90690251D01*
X121967619Y-90690251D02*
X122062857Y-90642632D01*
X122062857Y-90642632D02*
X122205714Y-90642632D01*
X122205714Y-90642632D02*
X122300952Y-90690251D01*
X122300952Y-90690251D02*
X122348571Y-90737870D01*
X122348571Y-90737870D02*
X122396190Y-90833108D01*
X122396190Y-90833108D02*
X122396190Y-91118822D01*
X122396190Y-91118822D02*
X122348571Y-91214060D01*
X122348571Y-91214060D02*
X122300952Y-91261680D01*
X122300952Y-91261680D02*
X122205714Y-91309299D01*
X122205714Y-91309299D02*
X122062857Y-91309299D01*
X122824762Y-90642632D02*
X122824762Y-91309299D01*
X122824762Y-90737870D02*
X122872381Y-90690251D01*
X122872381Y-90690251D02*
X122967619Y-90642632D01*
X122967619Y-90642632D02*
X123110476Y-90642632D01*
X123110476Y-90642632D02*
X123205714Y-90690251D01*
X123205714Y-90690251D02*
X123253333Y-90785489D01*
X123253333Y-90785489D02*
X123253333Y-91309299D01*
X124920000Y-90309299D02*
X124729524Y-90309299D01*
X124729524Y-90309299D02*
X124634286Y-90356918D01*
X124634286Y-90356918D02*
X124586667Y-90404537D01*
X124586667Y-90404537D02*
X124491429Y-90547394D01*
X124491429Y-90547394D02*
X124443810Y-90737870D01*
X124443810Y-90737870D02*
X124443810Y-91118822D01*
X124443810Y-91118822D02*
X124491429Y-91214060D01*
X124491429Y-91214060D02*
X124539048Y-91261680D01*
X124539048Y-91261680D02*
X124634286Y-91309299D01*
X124634286Y-91309299D02*
X124824762Y-91309299D01*
X124824762Y-91309299D02*
X124920000Y-91261680D01*
X124920000Y-91261680D02*
X124967619Y-91214060D01*
X124967619Y-91214060D02*
X125015238Y-91118822D01*
X125015238Y-91118822D02*
X125015238Y-90880727D01*
X125015238Y-90880727D02*
X124967619Y-90785489D01*
X124967619Y-90785489D02*
X124920000Y-90737870D01*
X124920000Y-90737870D02*
X124824762Y-90690251D01*
X124824762Y-90690251D02*
X124634286Y-90690251D01*
X124634286Y-90690251D02*
X124539048Y-90737870D01*
X124539048Y-90737870D02*
X124491429Y-90785489D01*
X124491429Y-90785489D02*
X124443810Y-90880727D01*
X57810476Y-80879870D02*
X57734286Y-80841775D01*
X57734286Y-80841775D02*
X57620000Y-80841775D01*
X57620000Y-80841775D02*
X57505714Y-80879870D01*
X57505714Y-80879870D02*
X57429524Y-80956060D01*
X57429524Y-80956060D02*
X57391429Y-81032251D01*
X57391429Y-81032251D02*
X57353333Y-81184632D01*
X57353333Y-81184632D02*
X57353333Y-81298918D01*
X57353333Y-81298918D02*
X57391429Y-81451299D01*
X57391429Y-81451299D02*
X57429524Y-81527489D01*
X57429524Y-81527489D02*
X57505714Y-81603680D01*
X57505714Y-81603680D02*
X57620000Y-81641775D01*
X57620000Y-81641775D02*
X57696191Y-81641775D01*
X57696191Y-81641775D02*
X57810476Y-81603680D01*
X57810476Y-81603680D02*
X57848572Y-81565584D01*
X57848572Y-81565584D02*
X57848572Y-81298918D01*
X57848572Y-81298918D02*
X57696191Y-81298918D01*
X58191429Y-81641775D02*
X58191429Y-80841775D01*
X58191429Y-80841775D02*
X58648572Y-81641775D01*
X58648572Y-81641775D02*
X58648572Y-80841775D01*
X59029524Y-81641775D02*
X59029524Y-80841775D01*
X59029524Y-80841775D02*
X59220000Y-80841775D01*
X59220000Y-80841775D02*
X59334286Y-80879870D01*
X59334286Y-80879870D02*
X59410476Y-80956060D01*
X59410476Y-80956060D02*
X59448571Y-81032251D01*
X59448571Y-81032251D02*
X59486667Y-81184632D01*
X59486667Y-81184632D02*
X59486667Y-81298918D01*
X59486667Y-81298918D02*
X59448571Y-81451299D01*
X59448571Y-81451299D02*
X59410476Y-81527489D01*
X59410476Y-81527489D02*
X59334286Y-81603680D01*
X59334286Y-81603680D02*
X59220000Y-81641775D01*
X59220000Y-81641775D02*
X59029524Y-81641775D01*
X118503810Y-52901775D02*
X118770477Y-53701775D01*
X118770477Y-53701775D02*
X119037143Y-52901775D01*
X119303810Y-53701775D02*
X119303810Y-52901775D01*
X119684762Y-53701775D02*
X119684762Y-52901775D01*
X119684762Y-52901775D02*
X120141905Y-53701775D01*
X120141905Y-53701775D02*
X120141905Y-52901775D01*
X103530476Y-80879870D02*
X103454286Y-80841775D01*
X103454286Y-80841775D02*
X103340000Y-80841775D01*
X103340000Y-80841775D02*
X103225714Y-80879870D01*
X103225714Y-80879870D02*
X103149524Y-80956060D01*
X103149524Y-80956060D02*
X103111429Y-81032251D01*
X103111429Y-81032251D02*
X103073333Y-81184632D01*
X103073333Y-81184632D02*
X103073333Y-81298918D01*
X103073333Y-81298918D02*
X103111429Y-81451299D01*
X103111429Y-81451299D02*
X103149524Y-81527489D01*
X103149524Y-81527489D02*
X103225714Y-81603680D01*
X103225714Y-81603680D02*
X103340000Y-81641775D01*
X103340000Y-81641775D02*
X103416191Y-81641775D01*
X103416191Y-81641775D02*
X103530476Y-81603680D01*
X103530476Y-81603680D02*
X103568572Y-81565584D01*
X103568572Y-81565584D02*
X103568572Y-81298918D01*
X103568572Y-81298918D02*
X103416191Y-81298918D01*
X103911429Y-81641775D02*
X103911429Y-80841775D01*
X103911429Y-80841775D02*
X104368572Y-81641775D01*
X104368572Y-81641775D02*
X104368572Y-80841775D01*
X104749524Y-81641775D02*
X104749524Y-80841775D01*
X104749524Y-80841775D02*
X104940000Y-80841775D01*
X104940000Y-80841775D02*
X105054286Y-80879870D01*
X105054286Y-80879870D02*
X105130476Y-80956060D01*
X105130476Y-80956060D02*
X105168571Y-81032251D01*
X105168571Y-81032251D02*
X105206667Y-81184632D01*
X105206667Y-81184632D02*
X105206667Y-81298918D01*
X105206667Y-81298918D02*
X105168571Y-81451299D01*
X105168571Y-81451299D02*
X105130476Y-81527489D01*
X105130476Y-81527489D02*
X105054286Y-81603680D01*
X105054286Y-81603680D02*
X104940000Y-81641775D01*
X104940000Y-81641775D02*
X104749524Y-81641775D01*
X70434286Y-40201775D02*
X70700953Y-41001775D01*
X70700953Y-41001775D02*
X70967619Y-40201775D01*
X71234286Y-41001775D02*
X71234286Y-40201775D01*
X71234286Y-40201775D02*
X71691429Y-41001775D01*
X71691429Y-41001775D02*
X71691429Y-40201775D01*
X52825714Y-71481775D02*
X52559047Y-71100822D01*
X52368571Y-71481775D02*
X52368571Y-70681775D01*
X52368571Y-70681775D02*
X52673333Y-70681775D01*
X52673333Y-70681775D02*
X52749523Y-70719870D01*
X52749523Y-70719870D02*
X52787618Y-70757965D01*
X52787618Y-70757965D02*
X52825714Y-70834156D01*
X52825714Y-70834156D02*
X52825714Y-70948441D01*
X52825714Y-70948441D02*
X52787618Y-71024632D01*
X52787618Y-71024632D02*
X52749523Y-71062727D01*
X52749523Y-71062727D02*
X52673333Y-71100822D01*
X52673333Y-71100822D02*
X52368571Y-71100822D01*
X53092380Y-70681775D02*
X53625714Y-71481775D01*
X53625714Y-70681775D02*
X53092380Y-71481775D01*
X53892380Y-70757965D02*
X53930476Y-70719870D01*
X53930476Y-70719870D02*
X54006666Y-70681775D01*
X54006666Y-70681775D02*
X54197142Y-70681775D01*
X54197142Y-70681775D02*
X54273333Y-70719870D01*
X54273333Y-70719870D02*
X54311428Y-70757965D01*
X54311428Y-70757965D02*
X54349523Y-70834156D01*
X54349523Y-70834156D02*
X54349523Y-70910346D01*
X54349523Y-70910346D02*
X54311428Y-71024632D01*
X54311428Y-71024632D02*
X53854285Y-71481775D01*
X53854285Y-71481775D02*
X54349523Y-71481775D01*
X103168571Y-48621775D02*
X103168571Y-47821775D01*
X103168571Y-47821775D02*
X103359047Y-47821775D01*
X103359047Y-47821775D02*
X103473333Y-47859870D01*
X103473333Y-47859870D02*
X103549523Y-47936060D01*
X103549523Y-47936060D02*
X103587618Y-48012251D01*
X103587618Y-48012251D02*
X103625714Y-48164632D01*
X103625714Y-48164632D02*
X103625714Y-48278918D01*
X103625714Y-48278918D02*
X103587618Y-48431299D01*
X103587618Y-48431299D02*
X103549523Y-48507489D01*
X103549523Y-48507489D02*
X103473333Y-48583680D01*
X103473333Y-48583680D02*
X103359047Y-48621775D01*
X103359047Y-48621775D02*
X103168571Y-48621775D01*
X103892380Y-47821775D02*
X104387618Y-47821775D01*
X104387618Y-47821775D02*
X104120952Y-48126537D01*
X104120952Y-48126537D02*
X104235237Y-48126537D01*
X104235237Y-48126537D02*
X104311428Y-48164632D01*
X104311428Y-48164632D02*
X104349523Y-48202727D01*
X104349523Y-48202727D02*
X104387618Y-48278918D01*
X104387618Y-48278918D02*
X104387618Y-48469394D01*
X104387618Y-48469394D02*
X104349523Y-48545584D01*
X104349523Y-48545584D02*
X104311428Y-48583680D01*
X104311428Y-48583680D02*
X104235237Y-48621775D01*
X104235237Y-48621775D02*
X104006666Y-48621775D01*
X104006666Y-48621775D02*
X103930475Y-48583680D01*
X103930475Y-48583680D02*
X103892380Y-48545584D01*
X104654285Y-47821775D02*
X105149523Y-47821775D01*
X105149523Y-47821775D02*
X104882857Y-48126537D01*
X104882857Y-48126537D02*
X104997142Y-48126537D01*
X104997142Y-48126537D02*
X105073333Y-48164632D01*
X105073333Y-48164632D02*
X105111428Y-48202727D01*
X105111428Y-48202727D02*
X105149523Y-48278918D01*
X105149523Y-48278918D02*
X105149523Y-48469394D01*
X105149523Y-48469394D02*
X105111428Y-48545584D01*
X105111428Y-48545584D02*
X105073333Y-48583680D01*
X105073333Y-48583680D02*
X104997142Y-48621775D01*
X104997142Y-48621775D02*
X104768571Y-48621775D01*
X104768571Y-48621775D02*
X104692380Y-48583680D01*
X104692380Y-48583680D02*
X104654285Y-48545584D01*
X123945714Y-61321775D02*
X123564762Y-61321775D01*
X123564762Y-61321775D02*
X123564762Y-60521775D01*
X124212381Y-60902727D02*
X124479047Y-60902727D01*
X124593333Y-61321775D02*
X124212381Y-61321775D01*
X124212381Y-61321775D02*
X124212381Y-60521775D01*
X124212381Y-60521775D02*
X124593333Y-60521775D01*
X124936191Y-61321775D02*
X124936191Y-60521775D01*
X124936191Y-60521775D02*
X125126667Y-60521775D01*
X125126667Y-60521775D02*
X125240953Y-60559870D01*
X125240953Y-60559870D02*
X125317143Y-60636060D01*
X125317143Y-60636060D02*
X125355238Y-60712251D01*
X125355238Y-60712251D02*
X125393334Y-60864632D01*
X125393334Y-60864632D02*
X125393334Y-60978918D01*
X125393334Y-60978918D02*
X125355238Y-61131299D01*
X125355238Y-61131299D02*
X125317143Y-61207489D01*
X125317143Y-61207489D02*
X125240953Y-61283680D01*
X125240953Y-61283680D02*
X125126667Y-61321775D01*
X125126667Y-61321775D02*
X124936191Y-61321775D01*
X47669524Y-71481775D02*
X47669524Y-70681775D01*
X47669524Y-70681775D02*
X47860000Y-70681775D01*
X47860000Y-70681775D02*
X47974286Y-70719870D01*
X47974286Y-70719870D02*
X48050476Y-70796060D01*
X48050476Y-70796060D02*
X48088571Y-70872251D01*
X48088571Y-70872251D02*
X48126667Y-71024632D01*
X48126667Y-71024632D02*
X48126667Y-71138918D01*
X48126667Y-71138918D02*
X48088571Y-71291299D01*
X48088571Y-71291299D02*
X48050476Y-71367489D01*
X48050476Y-71367489D02*
X47974286Y-71443680D01*
X47974286Y-71443680D02*
X47860000Y-71481775D01*
X47860000Y-71481775D02*
X47669524Y-71481775D01*
X48431428Y-70757965D02*
X48469524Y-70719870D01*
X48469524Y-70719870D02*
X48545714Y-70681775D01*
X48545714Y-70681775D02*
X48736190Y-70681775D01*
X48736190Y-70681775D02*
X48812381Y-70719870D01*
X48812381Y-70719870D02*
X48850476Y-70757965D01*
X48850476Y-70757965D02*
X48888571Y-70834156D01*
X48888571Y-70834156D02*
X48888571Y-70910346D01*
X48888571Y-70910346D02*
X48850476Y-71024632D01*
X48850476Y-71024632D02*
X48393333Y-71481775D01*
X48393333Y-71481775D02*
X48888571Y-71481775D01*
X93008571Y-81641775D02*
X93008571Y-80841775D01*
X93008571Y-80841775D02*
X93199047Y-80841775D01*
X93199047Y-80841775D02*
X93313333Y-80879870D01*
X93313333Y-80879870D02*
X93389523Y-80956060D01*
X93389523Y-80956060D02*
X93427618Y-81032251D01*
X93427618Y-81032251D02*
X93465714Y-81184632D01*
X93465714Y-81184632D02*
X93465714Y-81298918D01*
X93465714Y-81298918D02*
X93427618Y-81451299D01*
X93427618Y-81451299D02*
X93389523Y-81527489D01*
X93389523Y-81527489D02*
X93313333Y-81603680D01*
X93313333Y-81603680D02*
X93199047Y-81641775D01*
X93199047Y-81641775D02*
X93008571Y-81641775D01*
X94227618Y-81641775D02*
X93770475Y-81641775D01*
X93999047Y-81641775D02*
X93999047Y-80841775D01*
X93999047Y-80841775D02*
X93922856Y-80956060D01*
X93922856Y-80956060D02*
X93846666Y-81032251D01*
X93846666Y-81032251D02*
X93770475Y-81070346D01*
X94913333Y-81108441D02*
X94913333Y-81641775D01*
X94722857Y-80803680D02*
X94532380Y-81375108D01*
X94532380Y-81375108D02*
X95027619Y-81375108D01*
X118103809Y-56546537D02*
X118065714Y-56508441D01*
X118065714Y-56508441D02*
X117989523Y-56394156D01*
X117989523Y-56394156D02*
X117951428Y-56317965D01*
X117951428Y-56317965D02*
X117913333Y-56203680D01*
X117913333Y-56203680D02*
X117875238Y-56013203D01*
X117875238Y-56013203D02*
X117875238Y-55860822D01*
X117875238Y-55860822D02*
X117913333Y-55670346D01*
X117913333Y-55670346D02*
X117951428Y-55556060D01*
X117951428Y-55556060D02*
X117989523Y-55479870D01*
X117989523Y-55479870D02*
X118065714Y-55365584D01*
X118065714Y-55365584D02*
X118103809Y-55327489D01*
X118408571Y-56241775D02*
X118408571Y-55441775D01*
X118408571Y-55441775D02*
X118599047Y-55441775D01*
X118599047Y-55441775D02*
X118713333Y-55479870D01*
X118713333Y-55479870D02*
X118789523Y-55556060D01*
X118789523Y-55556060D02*
X118827618Y-55632251D01*
X118827618Y-55632251D02*
X118865714Y-55784632D01*
X118865714Y-55784632D02*
X118865714Y-55898918D01*
X118865714Y-55898918D02*
X118827618Y-56051299D01*
X118827618Y-56051299D02*
X118789523Y-56127489D01*
X118789523Y-56127489D02*
X118713333Y-56203680D01*
X118713333Y-56203680D02*
X118599047Y-56241775D01*
X118599047Y-56241775D02*
X118408571Y-56241775D01*
X119170475Y-55517965D02*
X119208571Y-55479870D01*
X119208571Y-55479870D02*
X119284761Y-55441775D01*
X119284761Y-55441775D02*
X119475237Y-55441775D01*
X119475237Y-55441775D02*
X119551428Y-55479870D01*
X119551428Y-55479870D02*
X119589523Y-55517965D01*
X119589523Y-55517965D02*
X119627618Y-55594156D01*
X119627618Y-55594156D02*
X119627618Y-55670346D01*
X119627618Y-55670346D02*
X119589523Y-55784632D01*
X119589523Y-55784632D02*
X119132380Y-56241775D01*
X119132380Y-56241775D02*
X119627618Y-56241775D01*
X120389523Y-56241775D02*
X119932380Y-56241775D01*
X120160952Y-56241775D02*
X120160952Y-55441775D01*
X120160952Y-55441775D02*
X120084761Y-55556060D01*
X120084761Y-55556060D02*
X120008571Y-55632251D01*
X120008571Y-55632251D02*
X119932380Y-55670346D01*
X120656190Y-56546537D02*
X120694285Y-56508441D01*
X120694285Y-56508441D02*
X120770476Y-56394156D01*
X120770476Y-56394156D02*
X120808571Y-56317965D01*
X120808571Y-56317965D02*
X120846666Y-56203680D01*
X120846666Y-56203680D02*
X120884762Y-56013203D01*
X120884762Y-56013203D02*
X120884762Y-55860822D01*
X120884762Y-55860822D02*
X120846666Y-55670346D01*
X120846666Y-55670346D02*
X120808571Y-55556060D01*
X120808571Y-55556060D02*
X120770476Y-55479870D01*
X120770476Y-55479870D02*
X120694285Y-55365584D01*
X120694285Y-55365584D02*
X120656190Y-55327489D01*
X62528571Y-71481775D02*
X62528571Y-70681775D01*
X62528571Y-70681775D02*
X62719047Y-70681775D01*
X62719047Y-70681775D02*
X62833333Y-70719870D01*
X62833333Y-70719870D02*
X62909523Y-70796060D01*
X62909523Y-70796060D02*
X62947618Y-70872251D01*
X62947618Y-70872251D02*
X62985714Y-71024632D01*
X62985714Y-71024632D02*
X62985714Y-71138918D01*
X62985714Y-71138918D02*
X62947618Y-71291299D01*
X62947618Y-71291299D02*
X62909523Y-71367489D01*
X62909523Y-71367489D02*
X62833333Y-71443680D01*
X62833333Y-71443680D02*
X62719047Y-71481775D01*
X62719047Y-71481775D02*
X62528571Y-71481775D01*
X63747618Y-71481775D02*
X63290475Y-71481775D01*
X63519047Y-71481775D02*
X63519047Y-70681775D01*
X63519047Y-70681775D02*
X63442856Y-70796060D01*
X63442856Y-70796060D02*
X63366666Y-70872251D01*
X63366666Y-70872251D02*
X63290475Y-70910346D01*
X64128571Y-71481775D02*
X64280952Y-71481775D01*
X64280952Y-71481775D02*
X64357142Y-71443680D01*
X64357142Y-71443680D02*
X64395238Y-71405584D01*
X64395238Y-71405584D02*
X64471428Y-71291299D01*
X64471428Y-71291299D02*
X64509523Y-71138918D01*
X64509523Y-71138918D02*
X64509523Y-70834156D01*
X64509523Y-70834156D02*
X64471428Y-70757965D01*
X64471428Y-70757965D02*
X64433333Y-70719870D01*
X64433333Y-70719870D02*
X64357142Y-70681775D01*
X64357142Y-70681775D02*
X64204761Y-70681775D01*
X64204761Y-70681775D02*
X64128571Y-70719870D01*
X64128571Y-70719870D02*
X64090476Y-70757965D01*
X64090476Y-70757965D02*
X64052380Y-70834156D01*
X64052380Y-70834156D02*
X64052380Y-71024632D01*
X64052380Y-71024632D02*
X64090476Y-71100822D01*
X64090476Y-71100822D02*
X64128571Y-71138918D01*
X64128571Y-71138918D02*
X64204761Y-71177013D01*
X64204761Y-71177013D02*
X64357142Y-71177013D01*
X64357142Y-71177013D02*
X64433333Y-71138918D01*
X64433333Y-71138918D02*
X64471428Y-71100822D01*
X64471428Y-71100822D02*
X64509523Y-71024632D01*
X72993333Y-40201775D02*
X73260000Y-41001775D01*
X73260000Y-41001775D02*
X73526666Y-40201775D01*
X73793333Y-41001775D02*
X73793333Y-40201775D01*
X73793333Y-40201775D02*
X74098095Y-40201775D01*
X74098095Y-40201775D02*
X74174285Y-40239870D01*
X74174285Y-40239870D02*
X74212380Y-40277965D01*
X74212380Y-40277965D02*
X74250476Y-40354156D01*
X74250476Y-40354156D02*
X74250476Y-40468441D01*
X74250476Y-40468441D02*
X74212380Y-40544632D01*
X74212380Y-40544632D02*
X74174285Y-40582727D01*
X74174285Y-40582727D02*
X74098095Y-40620822D01*
X74098095Y-40620822D02*
X73793333Y-40620822D01*
X73050476Y-80879870D02*
X72974286Y-80841775D01*
X72974286Y-80841775D02*
X72860000Y-80841775D01*
X72860000Y-80841775D02*
X72745714Y-80879870D01*
X72745714Y-80879870D02*
X72669524Y-80956060D01*
X72669524Y-80956060D02*
X72631429Y-81032251D01*
X72631429Y-81032251D02*
X72593333Y-81184632D01*
X72593333Y-81184632D02*
X72593333Y-81298918D01*
X72593333Y-81298918D02*
X72631429Y-81451299D01*
X72631429Y-81451299D02*
X72669524Y-81527489D01*
X72669524Y-81527489D02*
X72745714Y-81603680D01*
X72745714Y-81603680D02*
X72860000Y-81641775D01*
X72860000Y-81641775D02*
X72936191Y-81641775D01*
X72936191Y-81641775D02*
X73050476Y-81603680D01*
X73050476Y-81603680D02*
X73088572Y-81565584D01*
X73088572Y-81565584D02*
X73088572Y-81298918D01*
X73088572Y-81298918D02*
X72936191Y-81298918D01*
X73431429Y-81641775D02*
X73431429Y-80841775D01*
X73431429Y-80841775D02*
X73888572Y-81641775D01*
X73888572Y-81641775D02*
X73888572Y-80841775D01*
X74269524Y-81641775D02*
X74269524Y-80841775D01*
X74269524Y-80841775D02*
X74460000Y-80841775D01*
X74460000Y-80841775D02*
X74574286Y-80879870D01*
X74574286Y-80879870D02*
X74650476Y-80956060D01*
X74650476Y-80956060D02*
X74688571Y-81032251D01*
X74688571Y-81032251D02*
X74726667Y-81184632D01*
X74726667Y-81184632D02*
X74726667Y-81298918D01*
X74726667Y-81298918D02*
X74688571Y-81451299D01*
X74688571Y-81451299D02*
X74650476Y-81527489D01*
X74650476Y-81527489D02*
X74574286Y-81603680D01*
X74574286Y-81603680D02*
X74460000Y-81641775D01*
X74460000Y-81641775D02*
X74269524Y-81641775D01*
X67608571Y-41001775D02*
X67608571Y-40201775D01*
X67608571Y-40201775D02*
X67799047Y-40201775D01*
X67799047Y-40201775D02*
X67913333Y-40239870D01*
X67913333Y-40239870D02*
X67989523Y-40316060D01*
X67989523Y-40316060D02*
X68027618Y-40392251D01*
X68027618Y-40392251D02*
X68065714Y-40544632D01*
X68065714Y-40544632D02*
X68065714Y-40658918D01*
X68065714Y-40658918D02*
X68027618Y-40811299D01*
X68027618Y-40811299D02*
X67989523Y-40887489D01*
X67989523Y-40887489D02*
X67913333Y-40963680D01*
X67913333Y-40963680D02*
X67799047Y-41001775D01*
X67799047Y-41001775D02*
X67608571Y-41001775D01*
X68332380Y-40201775D02*
X68827618Y-40201775D01*
X68827618Y-40201775D02*
X68560952Y-40506537D01*
X68560952Y-40506537D02*
X68675237Y-40506537D01*
X68675237Y-40506537D02*
X68751428Y-40544632D01*
X68751428Y-40544632D02*
X68789523Y-40582727D01*
X68789523Y-40582727D02*
X68827618Y-40658918D01*
X68827618Y-40658918D02*
X68827618Y-40849394D01*
X68827618Y-40849394D02*
X68789523Y-40925584D01*
X68789523Y-40925584D02*
X68751428Y-40963680D01*
X68751428Y-40963680D02*
X68675237Y-41001775D01*
X68675237Y-41001775D02*
X68446666Y-41001775D01*
X68446666Y-41001775D02*
X68370475Y-40963680D01*
X68370475Y-40963680D02*
X68332380Y-40925584D01*
X69513333Y-40468441D02*
X69513333Y-41001775D01*
X69322857Y-40163680D02*
X69132380Y-40735108D01*
X69132380Y-40735108D02*
X69627619Y-40735108D01*
X88290476Y-80879870D02*
X88214286Y-80841775D01*
X88214286Y-80841775D02*
X88100000Y-80841775D01*
X88100000Y-80841775D02*
X87985714Y-80879870D01*
X87985714Y-80879870D02*
X87909524Y-80956060D01*
X87909524Y-80956060D02*
X87871429Y-81032251D01*
X87871429Y-81032251D02*
X87833333Y-81184632D01*
X87833333Y-81184632D02*
X87833333Y-81298918D01*
X87833333Y-81298918D02*
X87871429Y-81451299D01*
X87871429Y-81451299D02*
X87909524Y-81527489D01*
X87909524Y-81527489D02*
X87985714Y-81603680D01*
X87985714Y-81603680D02*
X88100000Y-81641775D01*
X88100000Y-81641775D02*
X88176191Y-81641775D01*
X88176191Y-81641775D02*
X88290476Y-81603680D01*
X88290476Y-81603680D02*
X88328572Y-81565584D01*
X88328572Y-81565584D02*
X88328572Y-81298918D01*
X88328572Y-81298918D02*
X88176191Y-81298918D01*
X88671429Y-81641775D02*
X88671429Y-80841775D01*
X88671429Y-80841775D02*
X89128572Y-81641775D01*
X89128572Y-81641775D02*
X89128572Y-80841775D01*
X89509524Y-81641775D02*
X89509524Y-80841775D01*
X89509524Y-80841775D02*
X89700000Y-80841775D01*
X89700000Y-80841775D02*
X89814286Y-80879870D01*
X89814286Y-80879870D02*
X89890476Y-80956060D01*
X89890476Y-80956060D02*
X89928571Y-81032251D01*
X89928571Y-81032251D02*
X89966667Y-81184632D01*
X89966667Y-81184632D02*
X89966667Y-81298918D01*
X89966667Y-81298918D02*
X89928571Y-81451299D01*
X89928571Y-81451299D02*
X89890476Y-81527489D01*
X89890476Y-81527489D02*
X89814286Y-81603680D01*
X89814286Y-81603680D02*
X89700000Y-81641775D01*
X89700000Y-81641775D02*
X89509524Y-81641775D01*
X106070476Y-47859870D02*
X105994286Y-47821775D01*
X105994286Y-47821775D02*
X105880000Y-47821775D01*
X105880000Y-47821775D02*
X105765714Y-47859870D01*
X105765714Y-47859870D02*
X105689524Y-47936060D01*
X105689524Y-47936060D02*
X105651429Y-48012251D01*
X105651429Y-48012251D02*
X105613333Y-48164632D01*
X105613333Y-48164632D02*
X105613333Y-48278918D01*
X105613333Y-48278918D02*
X105651429Y-48431299D01*
X105651429Y-48431299D02*
X105689524Y-48507489D01*
X105689524Y-48507489D02*
X105765714Y-48583680D01*
X105765714Y-48583680D02*
X105880000Y-48621775D01*
X105880000Y-48621775D02*
X105956191Y-48621775D01*
X105956191Y-48621775D02*
X106070476Y-48583680D01*
X106070476Y-48583680D02*
X106108572Y-48545584D01*
X106108572Y-48545584D02*
X106108572Y-48278918D01*
X106108572Y-48278918D02*
X105956191Y-48278918D01*
X106451429Y-48621775D02*
X106451429Y-47821775D01*
X106451429Y-47821775D02*
X106908572Y-48621775D01*
X106908572Y-48621775D02*
X106908572Y-47821775D01*
X107289524Y-48621775D02*
X107289524Y-47821775D01*
X107289524Y-47821775D02*
X107480000Y-47821775D01*
X107480000Y-47821775D02*
X107594286Y-47859870D01*
X107594286Y-47859870D02*
X107670476Y-47936060D01*
X107670476Y-47936060D02*
X107708571Y-48012251D01*
X107708571Y-48012251D02*
X107746667Y-48164632D01*
X107746667Y-48164632D02*
X107746667Y-48278918D01*
X107746667Y-48278918D02*
X107708571Y-48431299D01*
X107708571Y-48431299D02*
X107670476Y-48507489D01*
X107670476Y-48507489D02*
X107594286Y-48583680D01*
X107594286Y-48583680D02*
X107480000Y-48621775D01*
X107480000Y-48621775D02*
X107289524Y-48621775D01*
X42570476Y-80879870D02*
X42494286Y-80841775D01*
X42494286Y-80841775D02*
X42380000Y-80841775D01*
X42380000Y-80841775D02*
X42265714Y-80879870D01*
X42265714Y-80879870D02*
X42189524Y-80956060D01*
X42189524Y-80956060D02*
X42151429Y-81032251D01*
X42151429Y-81032251D02*
X42113333Y-81184632D01*
X42113333Y-81184632D02*
X42113333Y-81298918D01*
X42113333Y-81298918D02*
X42151429Y-81451299D01*
X42151429Y-81451299D02*
X42189524Y-81527489D01*
X42189524Y-81527489D02*
X42265714Y-81603680D01*
X42265714Y-81603680D02*
X42380000Y-81641775D01*
X42380000Y-81641775D02*
X42456191Y-81641775D01*
X42456191Y-81641775D02*
X42570476Y-81603680D01*
X42570476Y-81603680D02*
X42608572Y-81565584D01*
X42608572Y-81565584D02*
X42608572Y-81298918D01*
X42608572Y-81298918D02*
X42456191Y-81298918D01*
X42951429Y-81641775D02*
X42951429Y-80841775D01*
X42951429Y-80841775D02*
X43408572Y-81641775D01*
X43408572Y-81641775D02*
X43408572Y-80841775D01*
X43789524Y-81641775D02*
X43789524Y-80841775D01*
X43789524Y-80841775D02*
X43980000Y-80841775D01*
X43980000Y-80841775D02*
X44094286Y-80879870D01*
X44094286Y-80879870D02*
X44170476Y-80956060D01*
X44170476Y-80956060D02*
X44208571Y-81032251D01*
X44208571Y-81032251D02*
X44246667Y-81184632D01*
X44246667Y-81184632D02*
X44246667Y-81298918D01*
X44246667Y-81298918D02*
X44208571Y-81451299D01*
X44208571Y-81451299D02*
X44170476Y-81527489D01*
X44170476Y-81527489D02*
X44094286Y-81603680D01*
X44094286Y-81603680D02*
X43980000Y-81641775D01*
X43980000Y-81641775D02*
X43789524Y-81641775D01*
X43005713Y-90785489D02*
X43148570Y-90833108D01*
X43148570Y-90833108D02*
X43196189Y-90880727D01*
X43196189Y-90880727D02*
X43243808Y-90975965D01*
X43243808Y-90975965D02*
X43243808Y-91118822D01*
X43243808Y-91118822D02*
X43196189Y-91214060D01*
X43196189Y-91214060D02*
X43148570Y-91261680D01*
X43148570Y-91261680D02*
X43053332Y-91309299D01*
X43053332Y-91309299D02*
X42672380Y-91309299D01*
X42672380Y-91309299D02*
X42672380Y-90309299D01*
X42672380Y-90309299D02*
X43005713Y-90309299D01*
X43005713Y-90309299D02*
X43100951Y-90356918D01*
X43100951Y-90356918D02*
X43148570Y-90404537D01*
X43148570Y-90404537D02*
X43196189Y-90499775D01*
X43196189Y-90499775D02*
X43196189Y-90595013D01*
X43196189Y-90595013D02*
X43148570Y-90690251D01*
X43148570Y-90690251D02*
X43100951Y-90737870D01*
X43100951Y-90737870D02*
X43005713Y-90785489D01*
X43005713Y-90785489D02*
X42672380Y-90785489D01*
X44100951Y-90642632D02*
X44100951Y-91309299D01*
X43672380Y-90642632D02*
X43672380Y-91166441D01*
X43672380Y-91166441D02*
X43719999Y-91261680D01*
X43719999Y-91261680D02*
X43815237Y-91309299D01*
X43815237Y-91309299D02*
X43958094Y-91309299D01*
X43958094Y-91309299D02*
X44053332Y-91261680D01*
X44053332Y-91261680D02*
X44100951Y-91214060D01*
X44434285Y-90642632D02*
X44815237Y-90642632D01*
X44577142Y-90309299D02*
X44577142Y-91166441D01*
X44577142Y-91166441D02*
X44624761Y-91261680D01*
X44624761Y-91261680D02*
X44719999Y-91309299D01*
X44719999Y-91309299D02*
X44815237Y-91309299D01*
X45005714Y-90642632D02*
X45386666Y-90642632D01*
X45148571Y-90309299D02*
X45148571Y-91166441D01*
X45148571Y-91166441D02*
X45196190Y-91261680D01*
X45196190Y-91261680D02*
X45291428Y-91309299D01*
X45291428Y-91309299D02*
X45386666Y-91309299D01*
X45862857Y-91309299D02*
X45767619Y-91261680D01*
X45767619Y-91261680D02*
X45720000Y-91214060D01*
X45720000Y-91214060D02*
X45672381Y-91118822D01*
X45672381Y-91118822D02*
X45672381Y-90833108D01*
X45672381Y-90833108D02*
X45720000Y-90737870D01*
X45720000Y-90737870D02*
X45767619Y-90690251D01*
X45767619Y-90690251D02*
X45862857Y-90642632D01*
X45862857Y-90642632D02*
X46005714Y-90642632D01*
X46005714Y-90642632D02*
X46100952Y-90690251D01*
X46100952Y-90690251D02*
X46148571Y-90737870D01*
X46148571Y-90737870D02*
X46196190Y-90833108D01*
X46196190Y-90833108D02*
X46196190Y-91118822D01*
X46196190Y-91118822D02*
X46148571Y-91214060D01*
X46148571Y-91214060D02*
X46100952Y-91261680D01*
X46100952Y-91261680D02*
X46005714Y-91309299D01*
X46005714Y-91309299D02*
X45862857Y-91309299D01*
X46624762Y-90642632D02*
X46624762Y-91309299D01*
X46624762Y-90737870D02*
X46672381Y-90690251D01*
X46672381Y-90690251D02*
X46767619Y-90642632D01*
X46767619Y-90642632D02*
X46910476Y-90642632D01*
X46910476Y-90642632D02*
X47005714Y-90690251D01*
X47005714Y-90690251D02*
X47053333Y-90785489D01*
X47053333Y-90785489D02*
X47053333Y-91309299D01*
X48815238Y-91309299D02*
X48243810Y-91309299D01*
X48529524Y-91309299D02*
X48529524Y-90309299D01*
X48529524Y-90309299D02*
X48434286Y-90452156D01*
X48434286Y-90452156D02*
X48339048Y-90547394D01*
X48339048Y-90547394D02*
X48243810Y-90595013D01*
X88725713Y-90785489D02*
X88868570Y-90833108D01*
X88868570Y-90833108D02*
X88916189Y-90880727D01*
X88916189Y-90880727D02*
X88963808Y-90975965D01*
X88963808Y-90975965D02*
X88963808Y-91118822D01*
X88963808Y-91118822D02*
X88916189Y-91214060D01*
X88916189Y-91214060D02*
X88868570Y-91261680D01*
X88868570Y-91261680D02*
X88773332Y-91309299D01*
X88773332Y-91309299D02*
X88392380Y-91309299D01*
X88392380Y-91309299D02*
X88392380Y-90309299D01*
X88392380Y-90309299D02*
X88725713Y-90309299D01*
X88725713Y-90309299D02*
X88820951Y-90356918D01*
X88820951Y-90356918D02*
X88868570Y-90404537D01*
X88868570Y-90404537D02*
X88916189Y-90499775D01*
X88916189Y-90499775D02*
X88916189Y-90595013D01*
X88916189Y-90595013D02*
X88868570Y-90690251D01*
X88868570Y-90690251D02*
X88820951Y-90737870D01*
X88820951Y-90737870D02*
X88725713Y-90785489D01*
X88725713Y-90785489D02*
X88392380Y-90785489D01*
X89820951Y-90642632D02*
X89820951Y-91309299D01*
X89392380Y-90642632D02*
X89392380Y-91166441D01*
X89392380Y-91166441D02*
X89439999Y-91261680D01*
X89439999Y-91261680D02*
X89535237Y-91309299D01*
X89535237Y-91309299D02*
X89678094Y-91309299D01*
X89678094Y-91309299D02*
X89773332Y-91261680D01*
X89773332Y-91261680D02*
X89820951Y-91214060D01*
X90154285Y-90642632D02*
X90535237Y-90642632D01*
X90297142Y-90309299D02*
X90297142Y-91166441D01*
X90297142Y-91166441D02*
X90344761Y-91261680D01*
X90344761Y-91261680D02*
X90439999Y-91309299D01*
X90439999Y-91309299D02*
X90535237Y-91309299D01*
X90725714Y-90642632D02*
X91106666Y-90642632D01*
X90868571Y-90309299D02*
X90868571Y-91166441D01*
X90868571Y-91166441D02*
X90916190Y-91261680D01*
X90916190Y-91261680D02*
X91011428Y-91309299D01*
X91011428Y-91309299D02*
X91106666Y-91309299D01*
X91582857Y-91309299D02*
X91487619Y-91261680D01*
X91487619Y-91261680D02*
X91440000Y-91214060D01*
X91440000Y-91214060D02*
X91392381Y-91118822D01*
X91392381Y-91118822D02*
X91392381Y-90833108D01*
X91392381Y-90833108D02*
X91440000Y-90737870D01*
X91440000Y-90737870D02*
X91487619Y-90690251D01*
X91487619Y-90690251D02*
X91582857Y-90642632D01*
X91582857Y-90642632D02*
X91725714Y-90642632D01*
X91725714Y-90642632D02*
X91820952Y-90690251D01*
X91820952Y-90690251D02*
X91868571Y-90737870D01*
X91868571Y-90737870D02*
X91916190Y-90833108D01*
X91916190Y-90833108D02*
X91916190Y-91118822D01*
X91916190Y-91118822D02*
X91868571Y-91214060D01*
X91868571Y-91214060D02*
X91820952Y-91261680D01*
X91820952Y-91261680D02*
X91725714Y-91309299D01*
X91725714Y-91309299D02*
X91582857Y-91309299D01*
X92344762Y-90642632D02*
X92344762Y-91309299D01*
X92344762Y-90737870D02*
X92392381Y-90690251D01*
X92392381Y-90690251D02*
X92487619Y-90642632D01*
X92487619Y-90642632D02*
X92630476Y-90642632D01*
X92630476Y-90642632D02*
X92725714Y-90690251D01*
X92725714Y-90690251D02*
X92773333Y-90785489D01*
X92773333Y-90785489D02*
X92773333Y-91309299D01*
X94440000Y-90642632D02*
X94440000Y-91309299D01*
X94201905Y-90261680D02*
X93963810Y-90975965D01*
X93963810Y-90975965D02*
X94582857Y-90975965D01*
X54889523Y-70681775D02*
X55346666Y-70681775D01*
X55118094Y-71481775D02*
X55118094Y-70681775D01*
X55537142Y-70681775D02*
X56070476Y-71481775D01*
X56070476Y-70681775D02*
X55537142Y-71481775D01*
X56337142Y-70757965D02*
X56375238Y-70719870D01*
X56375238Y-70719870D02*
X56451428Y-70681775D01*
X56451428Y-70681775D02*
X56641904Y-70681775D01*
X56641904Y-70681775D02*
X56718095Y-70719870D01*
X56718095Y-70719870D02*
X56756190Y-70757965D01*
X56756190Y-70757965D02*
X56794285Y-70834156D01*
X56794285Y-70834156D02*
X56794285Y-70910346D01*
X56794285Y-70910346D02*
X56756190Y-71024632D01*
X56756190Y-71024632D02*
X56299047Y-71481775D01*
X56299047Y-71481775D02*
X56794285Y-71481775D01*
X118770476Y-50399870D02*
X118694286Y-50361775D01*
X118694286Y-50361775D02*
X118580000Y-50361775D01*
X118580000Y-50361775D02*
X118465714Y-50399870D01*
X118465714Y-50399870D02*
X118389524Y-50476060D01*
X118389524Y-50476060D02*
X118351429Y-50552251D01*
X118351429Y-50552251D02*
X118313333Y-50704632D01*
X118313333Y-50704632D02*
X118313333Y-50818918D01*
X118313333Y-50818918D02*
X118351429Y-50971299D01*
X118351429Y-50971299D02*
X118389524Y-51047489D01*
X118389524Y-51047489D02*
X118465714Y-51123680D01*
X118465714Y-51123680D02*
X118580000Y-51161775D01*
X118580000Y-51161775D02*
X118656191Y-51161775D01*
X118656191Y-51161775D02*
X118770476Y-51123680D01*
X118770476Y-51123680D02*
X118808572Y-51085584D01*
X118808572Y-51085584D02*
X118808572Y-50818918D01*
X118808572Y-50818918D02*
X118656191Y-50818918D01*
X119151429Y-51161775D02*
X119151429Y-50361775D01*
X119151429Y-50361775D02*
X119608572Y-51161775D01*
X119608572Y-51161775D02*
X119608572Y-50361775D01*
X119989524Y-51161775D02*
X119989524Y-50361775D01*
X119989524Y-50361775D02*
X120180000Y-50361775D01*
X120180000Y-50361775D02*
X120294286Y-50399870D01*
X120294286Y-50399870D02*
X120370476Y-50476060D01*
X120370476Y-50476060D02*
X120408571Y-50552251D01*
X120408571Y-50552251D02*
X120446667Y-50704632D01*
X120446667Y-50704632D02*
X120446667Y-50818918D01*
X120446667Y-50818918D02*
X120408571Y-50971299D01*
X120408571Y-50971299D02*
X120370476Y-51047489D01*
X120370476Y-51047489D02*
X120294286Y-51123680D01*
X120294286Y-51123680D02*
X120180000Y-51161775D01*
X120180000Y-51161775D02*
X119989524Y-51161775D01*
X108248571Y-81641775D02*
X108248571Y-80841775D01*
X108248571Y-80841775D02*
X108439047Y-80841775D01*
X108439047Y-80841775D02*
X108553333Y-80879870D01*
X108553333Y-80879870D02*
X108629523Y-80956060D01*
X108629523Y-80956060D02*
X108667618Y-81032251D01*
X108667618Y-81032251D02*
X108705714Y-81184632D01*
X108705714Y-81184632D02*
X108705714Y-81298918D01*
X108705714Y-81298918D02*
X108667618Y-81451299D01*
X108667618Y-81451299D02*
X108629523Y-81527489D01*
X108629523Y-81527489D02*
X108553333Y-81603680D01*
X108553333Y-81603680D02*
X108439047Y-81641775D01*
X108439047Y-81641775D02*
X108248571Y-81641775D01*
X109010475Y-80917965D02*
X109048571Y-80879870D01*
X109048571Y-80879870D02*
X109124761Y-80841775D01*
X109124761Y-80841775D02*
X109315237Y-80841775D01*
X109315237Y-80841775D02*
X109391428Y-80879870D01*
X109391428Y-80879870D02*
X109429523Y-80917965D01*
X109429523Y-80917965D02*
X109467618Y-80994156D01*
X109467618Y-80994156D02*
X109467618Y-81070346D01*
X109467618Y-81070346D02*
X109429523Y-81184632D01*
X109429523Y-81184632D02*
X108972380Y-81641775D01*
X108972380Y-81641775D02*
X109467618Y-81641775D01*
X109734285Y-80841775D02*
X110267619Y-80841775D01*
X110267619Y-80841775D02*
X109924761Y-81641775D01*
X49828571Y-41001775D02*
X49828571Y-40201775D01*
X49828571Y-40201775D02*
X50019047Y-40201775D01*
X50019047Y-40201775D02*
X50133333Y-40239870D01*
X50133333Y-40239870D02*
X50209523Y-40316060D01*
X50209523Y-40316060D02*
X50247618Y-40392251D01*
X50247618Y-40392251D02*
X50285714Y-40544632D01*
X50285714Y-40544632D02*
X50285714Y-40658918D01*
X50285714Y-40658918D02*
X50247618Y-40811299D01*
X50247618Y-40811299D02*
X50209523Y-40887489D01*
X50209523Y-40887489D02*
X50133333Y-40963680D01*
X50133333Y-40963680D02*
X50019047Y-41001775D01*
X50019047Y-41001775D02*
X49828571Y-41001775D01*
X51047618Y-41001775D02*
X50590475Y-41001775D01*
X50819047Y-41001775D02*
X50819047Y-40201775D01*
X50819047Y-40201775D02*
X50742856Y-40316060D01*
X50742856Y-40316060D02*
X50666666Y-40392251D01*
X50666666Y-40392251D02*
X50590475Y-40430346D01*
X51733333Y-40468441D02*
X51733333Y-41001775D01*
X51542857Y-40163680D02*
X51352380Y-40735108D01*
X51352380Y-40735108D02*
X51847619Y-40735108D01*
X123488571Y-56203680D02*
X123602857Y-56241775D01*
X123602857Y-56241775D02*
X123793333Y-56241775D01*
X123793333Y-56241775D02*
X123869524Y-56203680D01*
X123869524Y-56203680D02*
X123907619Y-56165584D01*
X123907619Y-56165584D02*
X123945714Y-56089394D01*
X123945714Y-56089394D02*
X123945714Y-56013203D01*
X123945714Y-56013203D02*
X123907619Y-55937013D01*
X123907619Y-55937013D02*
X123869524Y-55898918D01*
X123869524Y-55898918D02*
X123793333Y-55860822D01*
X123793333Y-55860822D02*
X123640952Y-55822727D01*
X123640952Y-55822727D02*
X123564762Y-55784632D01*
X123564762Y-55784632D02*
X123526667Y-55746537D01*
X123526667Y-55746537D02*
X123488571Y-55670346D01*
X123488571Y-55670346D02*
X123488571Y-55594156D01*
X123488571Y-55594156D02*
X123526667Y-55517965D01*
X123526667Y-55517965D02*
X123564762Y-55479870D01*
X123564762Y-55479870D02*
X123640952Y-55441775D01*
X123640952Y-55441775D02*
X123831429Y-55441775D01*
X123831429Y-55441775D02*
X123945714Y-55479870D01*
X124288572Y-56241775D02*
X124288572Y-55441775D01*
X124288572Y-55441775D02*
X124479048Y-55441775D01*
X124479048Y-55441775D02*
X124593334Y-55479870D01*
X124593334Y-55479870D02*
X124669524Y-55556060D01*
X124669524Y-55556060D02*
X124707619Y-55632251D01*
X124707619Y-55632251D02*
X124745715Y-55784632D01*
X124745715Y-55784632D02*
X124745715Y-55898918D01*
X124745715Y-55898918D02*
X124707619Y-56051299D01*
X124707619Y-56051299D02*
X124669524Y-56127489D01*
X124669524Y-56127489D02*
X124593334Y-56203680D01*
X124593334Y-56203680D02*
X124479048Y-56241775D01*
X124479048Y-56241775D02*
X124288572Y-56241775D01*
X125050476Y-56013203D02*
X125431429Y-56013203D01*
X124974286Y-56241775D02*
X125240953Y-55441775D01*
X125240953Y-55441775D02*
X125507619Y-56241775D01*
X106070476Y-42779870D02*
X105994286Y-42741775D01*
X105994286Y-42741775D02*
X105880000Y-42741775D01*
X105880000Y-42741775D02*
X105765714Y-42779870D01*
X105765714Y-42779870D02*
X105689524Y-42856060D01*
X105689524Y-42856060D02*
X105651429Y-42932251D01*
X105651429Y-42932251D02*
X105613333Y-43084632D01*
X105613333Y-43084632D02*
X105613333Y-43198918D01*
X105613333Y-43198918D02*
X105651429Y-43351299D01*
X105651429Y-43351299D02*
X105689524Y-43427489D01*
X105689524Y-43427489D02*
X105765714Y-43503680D01*
X105765714Y-43503680D02*
X105880000Y-43541775D01*
X105880000Y-43541775D02*
X105956191Y-43541775D01*
X105956191Y-43541775D02*
X106070476Y-43503680D01*
X106070476Y-43503680D02*
X106108572Y-43465584D01*
X106108572Y-43465584D02*
X106108572Y-43198918D01*
X106108572Y-43198918D02*
X105956191Y-43198918D01*
X106451429Y-43541775D02*
X106451429Y-42741775D01*
X106451429Y-42741775D02*
X106908572Y-43541775D01*
X106908572Y-43541775D02*
X106908572Y-42741775D01*
X107289524Y-43541775D02*
X107289524Y-42741775D01*
X107289524Y-42741775D02*
X107480000Y-42741775D01*
X107480000Y-42741775D02*
X107594286Y-42779870D01*
X107594286Y-42779870D02*
X107670476Y-42856060D01*
X107670476Y-42856060D02*
X107708571Y-42932251D01*
X107708571Y-42932251D02*
X107746667Y-43084632D01*
X107746667Y-43084632D02*
X107746667Y-43198918D01*
X107746667Y-43198918D02*
X107708571Y-43351299D01*
X107708571Y-43351299D02*
X107670476Y-43427489D01*
X107670476Y-43427489D02*
X107594286Y-43503680D01*
X107594286Y-43503680D02*
X107480000Y-43541775D01*
X107480000Y-43541775D02*
X107289524Y-43541775D01*
X44748571Y-41001775D02*
X44748571Y-40201775D01*
X44748571Y-40201775D02*
X44939047Y-40201775D01*
X44939047Y-40201775D02*
X45053333Y-40239870D01*
X45053333Y-40239870D02*
X45129523Y-40316060D01*
X45129523Y-40316060D02*
X45167618Y-40392251D01*
X45167618Y-40392251D02*
X45205714Y-40544632D01*
X45205714Y-40544632D02*
X45205714Y-40658918D01*
X45205714Y-40658918D02*
X45167618Y-40811299D01*
X45167618Y-40811299D02*
X45129523Y-40887489D01*
X45129523Y-40887489D02*
X45053333Y-40963680D01*
X45053333Y-40963680D02*
X44939047Y-41001775D01*
X44939047Y-41001775D02*
X44748571Y-41001775D01*
X45967618Y-41001775D02*
X45510475Y-41001775D01*
X45739047Y-41001775D02*
X45739047Y-40201775D01*
X45739047Y-40201775D02*
X45662856Y-40316060D01*
X45662856Y-40316060D02*
X45586666Y-40392251D01*
X45586666Y-40392251D02*
X45510475Y-40430346D01*
X46234285Y-40201775D02*
X46729523Y-40201775D01*
X46729523Y-40201775D02*
X46462857Y-40506537D01*
X46462857Y-40506537D02*
X46577142Y-40506537D01*
X46577142Y-40506537D02*
X46653333Y-40544632D01*
X46653333Y-40544632D02*
X46691428Y-40582727D01*
X46691428Y-40582727D02*
X46729523Y-40658918D01*
X46729523Y-40658918D02*
X46729523Y-40849394D01*
X46729523Y-40849394D02*
X46691428Y-40925584D01*
X46691428Y-40925584D02*
X46653333Y-40963680D01*
X46653333Y-40963680D02*
X46577142Y-41001775D01*
X46577142Y-41001775D02*
X46348571Y-41001775D01*
X46348571Y-41001775D02*
X46272380Y-40963680D01*
X46272380Y-40963680D02*
X46234285Y-40925584D01*
X100723810Y-47821775D02*
X100990477Y-48621775D01*
X100990477Y-48621775D02*
X101257143Y-47821775D01*
X101523810Y-48621775D02*
X101523810Y-47821775D01*
X101904762Y-48621775D02*
X101904762Y-47821775D01*
X101904762Y-47821775D02*
X102361905Y-48621775D01*
X102361905Y-48621775D02*
X102361905Y-47821775D01*
X47669524Y-81641775D02*
X47669524Y-80841775D01*
X47669524Y-80841775D02*
X47860000Y-80841775D01*
X47860000Y-80841775D02*
X47974286Y-80879870D01*
X47974286Y-80879870D02*
X48050476Y-80956060D01*
X48050476Y-80956060D02*
X48088571Y-81032251D01*
X48088571Y-81032251D02*
X48126667Y-81184632D01*
X48126667Y-81184632D02*
X48126667Y-81298918D01*
X48126667Y-81298918D02*
X48088571Y-81451299D01*
X48088571Y-81451299D02*
X48050476Y-81527489D01*
X48050476Y-81527489D02*
X47974286Y-81603680D01*
X47974286Y-81603680D02*
X47860000Y-81641775D01*
X47860000Y-81641775D02*
X47669524Y-81641775D01*
X48812381Y-81108441D02*
X48812381Y-81641775D01*
X48621905Y-80803680D02*
X48431428Y-81375108D01*
X48431428Y-81375108D02*
X48926667Y-81375108D01*
X123507618Y-58743680D02*
X123621904Y-58781775D01*
X123621904Y-58781775D02*
X123812380Y-58781775D01*
X123812380Y-58781775D02*
X123888571Y-58743680D01*
X123888571Y-58743680D02*
X123926666Y-58705584D01*
X123926666Y-58705584D02*
X123964761Y-58629394D01*
X123964761Y-58629394D02*
X123964761Y-58553203D01*
X123964761Y-58553203D02*
X123926666Y-58477013D01*
X123926666Y-58477013D02*
X123888571Y-58438918D01*
X123888571Y-58438918D02*
X123812380Y-58400822D01*
X123812380Y-58400822D02*
X123659999Y-58362727D01*
X123659999Y-58362727D02*
X123583809Y-58324632D01*
X123583809Y-58324632D02*
X123545714Y-58286537D01*
X123545714Y-58286537D02*
X123507618Y-58210346D01*
X123507618Y-58210346D02*
X123507618Y-58134156D01*
X123507618Y-58134156D02*
X123545714Y-58057965D01*
X123545714Y-58057965D02*
X123583809Y-58019870D01*
X123583809Y-58019870D02*
X123659999Y-57981775D01*
X123659999Y-57981775D02*
X123850476Y-57981775D01*
X123850476Y-57981775D02*
X123964761Y-58019870D01*
X124764762Y-58705584D02*
X124726666Y-58743680D01*
X124726666Y-58743680D02*
X124612381Y-58781775D01*
X124612381Y-58781775D02*
X124536190Y-58781775D01*
X124536190Y-58781775D02*
X124421904Y-58743680D01*
X124421904Y-58743680D02*
X124345714Y-58667489D01*
X124345714Y-58667489D02*
X124307619Y-58591299D01*
X124307619Y-58591299D02*
X124269523Y-58438918D01*
X124269523Y-58438918D02*
X124269523Y-58324632D01*
X124269523Y-58324632D02*
X124307619Y-58172251D01*
X124307619Y-58172251D02*
X124345714Y-58096060D01*
X124345714Y-58096060D02*
X124421904Y-58019870D01*
X124421904Y-58019870D02*
X124536190Y-57981775D01*
X124536190Y-57981775D02*
X124612381Y-57981775D01*
X124612381Y-57981775D02*
X124726666Y-58019870D01*
X124726666Y-58019870D02*
X124764762Y-58057965D01*
X125488571Y-58781775D02*
X125107619Y-58781775D01*
X125107619Y-58781775D02*
X125107619Y-57981775D01*
X73485713Y-90785489D02*
X73628570Y-90833108D01*
X73628570Y-90833108D02*
X73676189Y-90880727D01*
X73676189Y-90880727D02*
X73723808Y-90975965D01*
X73723808Y-90975965D02*
X73723808Y-91118822D01*
X73723808Y-91118822D02*
X73676189Y-91214060D01*
X73676189Y-91214060D02*
X73628570Y-91261680D01*
X73628570Y-91261680D02*
X73533332Y-91309299D01*
X73533332Y-91309299D02*
X73152380Y-91309299D01*
X73152380Y-91309299D02*
X73152380Y-90309299D01*
X73152380Y-90309299D02*
X73485713Y-90309299D01*
X73485713Y-90309299D02*
X73580951Y-90356918D01*
X73580951Y-90356918D02*
X73628570Y-90404537D01*
X73628570Y-90404537D02*
X73676189Y-90499775D01*
X73676189Y-90499775D02*
X73676189Y-90595013D01*
X73676189Y-90595013D02*
X73628570Y-90690251D01*
X73628570Y-90690251D02*
X73580951Y-90737870D01*
X73580951Y-90737870D02*
X73485713Y-90785489D01*
X73485713Y-90785489D02*
X73152380Y-90785489D01*
X74580951Y-90642632D02*
X74580951Y-91309299D01*
X74152380Y-90642632D02*
X74152380Y-91166441D01*
X74152380Y-91166441D02*
X74199999Y-91261680D01*
X74199999Y-91261680D02*
X74295237Y-91309299D01*
X74295237Y-91309299D02*
X74438094Y-91309299D01*
X74438094Y-91309299D02*
X74533332Y-91261680D01*
X74533332Y-91261680D02*
X74580951Y-91214060D01*
X74914285Y-90642632D02*
X75295237Y-90642632D01*
X75057142Y-90309299D02*
X75057142Y-91166441D01*
X75057142Y-91166441D02*
X75104761Y-91261680D01*
X75104761Y-91261680D02*
X75199999Y-91309299D01*
X75199999Y-91309299D02*
X75295237Y-91309299D01*
X75485714Y-90642632D02*
X75866666Y-90642632D01*
X75628571Y-90309299D02*
X75628571Y-91166441D01*
X75628571Y-91166441D02*
X75676190Y-91261680D01*
X75676190Y-91261680D02*
X75771428Y-91309299D01*
X75771428Y-91309299D02*
X75866666Y-91309299D01*
X76342857Y-91309299D02*
X76247619Y-91261680D01*
X76247619Y-91261680D02*
X76200000Y-91214060D01*
X76200000Y-91214060D02*
X76152381Y-91118822D01*
X76152381Y-91118822D02*
X76152381Y-90833108D01*
X76152381Y-90833108D02*
X76200000Y-90737870D01*
X76200000Y-90737870D02*
X76247619Y-90690251D01*
X76247619Y-90690251D02*
X76342857Y-90642632D01*
X76342857Y-90642632D02*
X76485714Y-90642632D01*
X76485714Y-90642632D02*
X76580952Y-90690251D01*
X76580952Y-90690251D02*
X76628571Y-90737870D01*
X76628571Y-90737870D02*
X76676190Y-90833108D01*
X76676190Y-90833108D02*
X76676190Y-91118822D01*
X76676190Y-91118822D02*
X76628571Y-91214060D01*
X76628571Y-91214060D02*
X76580952Y-91261680D01*
X76580952Y-91261680D02*
X76485714Y-91309299D01*
X76485714Y-91309299D02*
X76342857Y-91309299D01*
X77104762Y-90642632D02*
X77104762Y-91309299D01*
X77104762Y-90737870D02*
X77152381Y-90690251D01*
X77152381Y-90690251D02*
X77247619Y-90642632D01*
X77247619Y-90642632D02*
X77390476Y-90642632D01*
X77390476Y-90642632D02*
X77485714Y-90690251D01*
X77485714Y-90690251D02*
X77533333Y-90785489D01*
X77533333Y-90785489D02*
X77533333Y-91309299D01*
X78676191Y-90309299D02*
X79295238Y-90309299D01*
X79295238Y-90309299D02*
X78961905Y-90690251D01*
X78961905Y-90690251D02*
X79104762Y-90690251D01*
X79104762Y-90690251D02*
X79200000Y-90737870D01*
X79200000Y-90737870D02*
X79247619Y-90785489D01*
X79247619Y-90785489D02*
X79295238Y-90880727D01*
X79295238Y-90880727D02*
X79295238Y-91118822D01*
X79295238Y-91118822D02*
X79247619Y-91214060D01*
X79247619Y-91214060D02*
X79200000Y-91261680D01*
X79200000Y-91261680D02*
X79104762Y-91309299D01*
X79104762Y-91309299D02*
X78819048Y-91309299D01*
X78819048Y-91309299D02*
X78723810Y-91261680D01*
X78723810Y-91261680D02*
X78676191Y-91214060D01*
X117422521Y-63198210D02*
X117470140Y-63150591D01*
X117470140Y-63150591D02*
X117565378Y-63102972D01*
X117565378Y-63102972D02*
X117803473Y-63102972D01*
X117803473Y-63102972D02*
X117898711Y-63150591D01*
X117898711Y-63150591D02*
X117946330Y-63198210D01*
X117946330Y-63198210D02*
X117993949Y-63293448D01*
X117993949Y-63293448D02*
X117993949Y-63388686D01*
X117993949Y-63388686D02*
X117946330Y-63531543D01*
X117946330Y-63531543D02*
X117374902Y-64102972D01*
X117374902Y-64102972D02*
X117993949Y-64102972D01*
X118612997Y-63102972D02*
X118708235Y-63102972D01*
X118708235Y-63102972D02*
X118803473Y-63150591D01*
X118803473Y-63150591D02*
X118851092Y-63198210D01*
X118851092Y-63198210D02*
X118898711Y-63293448D01*
X118898711Y-63293448D02*
X118946330Y-63483924D01*
X118946330Y-63483924D02*
X118946330Y-63722019D01*
X118946330Y-63722019D02*
X118898711Y-63912495D01*
X118898711Y-63912495D02*
X118851092Y-64007733D01*
X118851092Y-64007733D02*
X118803473Y-64055353D01*
X118803473Y-64055353D02*
X118708235Y-64102972D01*
X118708235Y-64102972D02*
X118612997Y-64102972D01*
X118612997Y-64102972D02*
X118517759Y-64055353D01*
X118517759Y-64055353D02*
X118470140Y-64007733D01*
X118470140Y-64007733D02*
X118422521Y-63912495D01*
X118422521Y-63912495D02*
X118374902Y-63722019D01*
X118374902Y-63722019D02*
X118374902Y-63483924D01*
X118374902Y-63483924D02*
X118422521Y-63293448D01*
X118422521Y-63293448D02*
X118470140Y-63198210D01*
X118470140Y-63198210D02*
X118517759Y-63150591D01*
X118517759Y-63150591D02*
X118612997Y-63102972D01*
X119565378Y-63102972D02*
X119660616Y-63102972D01*
X119660616Y-63102972D02*
X119755854Y-63150591D01*
X119755854Y-63150591D02*
X119803473Y-63198210D01*
X119803473Y-63198210D02*
X119851092Y-63293448D01*
X119851092Y-63293448D02*
X119898711Y-63483924D01*
X119898711Y-63483924D02*
X119898711Y-63722019D01*
X119898711Y-63722019D02*
X119851092Y-63912495D01*
X119851092Y-63912495D02*
X119803473Y-64007733D01*
X119803473Y-64007733D02*
X119755854Y-64055353D01*
X119755854Y-64055353D02*
X119660616Y-64102972D01*
X119660616Y-64102972D02*
X119565378Y-64102972D01*
X119565378Y-64102972D02*
X119470140Y-64055353D01*
X119470140Y-64055353D02*
X119422521Y-64007733D01*
X119422521Y-64007733D02*
X119374902Y-63912495D01*
X119374902Y-63912495D02*
X119327283Y-63722019D01*
X119327283Y-63722019D02*
X119327283Y-63483924D01*
X119327283Y-63483924D02*
X119374902Y-63293448D01*
X119374902Y-63293448D02*
X119422521Y-63198210D01*
X119422521Y-63198210D02*
X119470140Y-63150591D01*
X119470140Y-63150591D02*
X119565378Y-63102972D01*
X120755854Y-63436305D02*
X120755854Y-64102972D01*
X120517759Y-63055353D02*
X120279664Y-63769638D01*
X120279664Y-63769638D02*
X120898711Y-63769638D01*
X121232045Y-63817257D02*
X121708235Y-63817257D01*
X121136807Y-64102972D02*
X121470140Y-63102972D01*
X121470140Y-63102972D02*
X121803473Y-64102972D01*
X122136807Y-63722019D02*
X122898712Y-63722019D01*
X123232045Y-63102972D02*
X123565378Y-64102972D01*
X123565378Y-64102972D02*
X123898711Y-63102972D01*
X124755854Y-64102972D02*
X124184426Y-64102972D01*
X124470140Y-64102972D02*
X124470140Y-63102972D01*
X124470140Y-63102972D02*
X124374902Y-63245829D01*
X124374902Y-63245829D02*
X124279664Y-63341067D01*
X124279664Y-63341067D02*
X124184426Y-63388686D01*
X125184426Y-64007733D02*
X125232045Y-64055353D01*
X125232045Y-64055353D02*
X125184426Y-64102972D01*
X125184426Y-64102972D02*
X125136807Y-64055353D01*
X125136807Y-64055353D02*
X125184426Y-64007733D01*
X125184426Y-64007733D02*
X125184426Y-64102972D01*
X125565378Y-63102972D02*
X126184425Y-63102972D01*
X126184425Y-63102972D02*
X125851092Y-63483924D01*
X125851092Y-63483924D02*
X125993949Y-63483924D01*
X125993949Y-63483924D02*
X126089187Y-63531543D01*
X126089187Y-63531543D02*
X126136806Y-63579162D01*
X126136806Y-63579162D02*
X126184425Y-63674400D01*
X126184425Y-63674400D02*
X126184425Y-63912495D01*
X126184425Y-63912495D02*
X126136806Y-64007733D01*
X126136806Y-64007733D02*
X126089187Y-64055353D01*
X126089187Y-64055353D02*
X125993949Y-64102972D01*
X125993949Y-64102972D02*
X125708235Y-64102972D01*
X125708235Y-64102972D02*
X125612997Y-64055353D01*
X125612997Y-64055353D02*
X125565378Y-64007733D01*
X59988571Y-41001775D02*
X59988571Y-40201775D01*
X59988571Y-40201775D02*
X60179047Y-40201775D01*
X60179047Y-40201775D02*
X60293333Y-40239870D01*
X60293333Y-40239870D02*
X60369523Y-40316060D01*
X60369523Y-40316060D02*
X60407618Y-40392251D01*
X60407618Y-40392251D02*
X60445714Y-40544632D01*
X60445714Y-40544632D02*
X60445714Y-40658918D01*
X60445714Y-40658918D02*
X60407618Y-40811299D01*
X60407618Y-40811299D02*
X60369523Y-40887489D01*
X60369523Y-40887489D02*
X60293333Y-40963680D01*
X60293333Y-40963680D02*
X60179047Y-41001775D01*
X60179047Y-41001775D02*
X59988571Y-41001775D01*
X60712380Y-40201775D02*
X61207618Y-40201775D01*
X61207618Y-40201775D02*
X60940952Y-40506537D01*
X60940952Y-40506537D02*
X61055237Y-40506537D01*
X61055237Y-40506537D02*
X61131428Y-40544632D01*
X61131428Y-40544632D02*
X61169523Y-40582727D01*
X61169523Y-40582727D02*
X61207618Y-40658918D01*
X61207618Y-40658918D02*
X61207618Y-40849394D01*
X61207618Y-40849394D02*
X61169523Y-40925584D01*
X61169523Y-40925584D02*
X61131428Y-40963680D01*
X61131428Y-40963680D02*
X61055237Y-41001775D01*
X61055237Y-41001775D02*
X60826666Y-41001775D01*
X60826666Y-41001775D02*
X60750475Y-40963680D01*
X60750475Y-40963680D02*
X60712380Y-40925584D01*
X61474285Y-40201775D02*
X61969523Y-40201775D01*
X61969523Y-40201775D02*
X61702857Y-40506537D01*
X61702857Y-40506537D02*
X61817142Y-40506537D01*
X61817142Y-40506537D02*
X61893333Y-40544632D01*
X61893333Y-40544632D02*
X61931428Y-40582727D01*
X61931428Y-40582727D02*
X61969523Y-40658918D01*
X61969523Y-40658918D02*
X61969523Y-40849394D01*
X61969523Y-40849394D02*
X61931428Y-40925584D01*
X61931428Y-40925584D02*
X61893333Y-40963680D01*
X61893333Y-40963680D02*
X61817142Y-41001775D01*
X61817142Y-41001775D02*
X61588571Y-41001775D01*
X61588571Y-41001775D02*
X61512380Y-40963680D01*
X61512380Y-40963680D02*
X61474285Y-40925584D01*
X123850476Y-50399870D02*
X123774286Y-50361775D01*
X123774286Y-50361775D02*
X123660000Y-50361775D01*
X123660000Y-50361775D02*
X123545714Y-50399870D01*
X123545714Y-50399870D02*
X123469524Y-50476060D01*
X123469524Y-50476060D02*
X123431429Y-50552251D01*
X123431429Y-50552251D02*
X123393333Y-50704632D01*
X123393333Y-50704632D02*
X123393333Y-50818918D01*
X123393333Y-50818918D02*
X123431429Y-50971299D01*
X123431429Y-50971299D02*
X123469524Y-51047489D01*
X123469524Y-51047489D02*
X123545714Y-51123680D01*
X123545714Y-51123680D02*
X123660000Y-51161775D01*
X123660000Y-51161775D02*
X123736191Y-51161775D01*
X123736191Y-51161775D02*
X123850476Y-51123680D01*
X123850476Y-51123680D02*
X123888572Y-51085584D01*
X123888572Y-51085584D02*
X123888572Y-50818918D01*
X123888572Y-50818918D02*
X123736191Y-50818918D01*
X124231429Y-51161775D02*
X124231429Y-50361775D01*
X124231429Y-50361775D02*
X124688572Y-51161775D01*
X124688572Y-51161775D02*
X124688572Y-50361775D01*
X125069524Y-51161775D02*
X125069524Y-50361775D01*
X125069524Y-50361775D02*
X125260000Y-50361775D01*
X125260000Y-50361775D02*
X125374286Y-50399870D01*
X125374286Y-50399870D02*
X125450476Y-50476060D01*
X125450476Y-50476060D02*
X125488571Y-50552251D01*
X125488571Y-50552251D02*
X125526667Y-50704632D01*
X125526667Y-50704632D02*
X125526667Y-50818918D01*
X125526667Y-50818918D02*
X125488571Y-50971299D01*
X125488571Y-50971299D02*
X125450476Y-51047489D01*
X125450476Y-51047489D02*
X125374286Y-51123680D01*
X125374286Y-51123680D02*
X125260000Y-51161775D01*
X125260000Y-51161775D02*
X125069524Y-51161775D01*
X42570476Y-40239870D02*
X42494286Y-40201775D01*
X42494286Y-40201775D02*
X42380000Y-40201775D01*
X42380000Y-40201775D02*
X42265714Y-40239870D01*
X42265714Y-40239870D02*
X42189524Y-40316060D01*
X42189524Y-40316060D02*
X42151429Y-40392251D01*
X42151429Y-40392251D02*
X42113333Y-40544632D01*
X42113333Y-40544632D02*
X42113333Y-40658918D01*
X42113333Y-40658918D02*
X42151429Y-40811299D01*
X42151429Y-40811299D02*
X42189524Y-40887489D01*
X42189524Y-40887489D02*
X42265714Y-40963680D01*
X42265714Y-40963680D02*
X42380000Y-41001775D01*
X42380000Y-41001775D02*
X42456191Y-41001775D01*
X42456191Y-41001775D02*
X42570476Y-40963680D01*
X42570476Y-40963680D02*
X42608572Y-40925584D01*
X42608572Y-40925584D02*
X42608572Y-40658918D01*
X42608572Y-40658918D02*
X42456191Y-40658918D01*
X42951429Y-41001775D02*
X42951429Y-40201775D01*
X42951429Y-40201775D02*
X43408572Y-41001775D01*
X43408572Y-41001775D02*
X43408572Y-40201775D01*
X43789524Y-41001775D02*
X43789524Y-40201775D01*
X43789524Y-40201775D02*
X43980000Y-40201775D01*
X43980000Y-40201775D02*
X44094286Y-40239870D01*
X44094286Y-40239870D02*
X44170476Y-40316060D01*
X44170476Y-40316060D02*
X44208571Y-40392251D01*
X44208571Y-40392251D02*
X44246667Y-40544632D01*
X44246667Y-40544632D02*
X44246667Y-40658918D01*
X44246667Y-40658918D02*
X44208571Y-40811299D01*
X44208571Y-40811299D02*
X44170476Y-40887489D01*
X44170476Y-40887489D02*
X44094286Y-40963680D01*
X44094286Y-40963680D02*
X43980000Y-41001775D01*
X43980000Y-41001775D02*
X43789524Y-41001775D01*
X57829524Y-71481775D02*
X57829524Y-70681775D01*
X57829524Y-70681775D02*
X58020000Y-70681775D01*
X58020000Y-70681775D02*
X58134286Y-70719870D01*
X58134286Y-70719870D02*
X58210476Y-70796060D01*
X58210476Y-70796060D02*
X58248571Y-70872251D01*
X58248571Y-70872251D02*
X58286667Y-71024632D01*
X58286667Y-71024632D02*
X58286667Y-71138918D01*
X58286667Y-71138918D02*
X58248571Y-71291299D01*
X58248571Y-71291299D02*
X58210476Y-71367489D01*
X58210476Y-71367489D02*
X58134286Y-71443680D01*
X58134286Y-71443680D02*
X58020000Y-71481775D01*
X58020000Y-71481775D02*
X57829524Y-71481775D01*
X59010476Y-70681775D02*
X58629524Y-70681775D01*
X58629524Y-70681775D02*
X58591428Y-71062727D01*
X58591428Y-71062727D02*
X58629524Y-71024632D01*
X58629524Y-71024632D02*
X58705714Y-70986537D01*
X58705714Y-70986537D02*
X58896190Y-70986537D01*
X58896190Y-70986537D02*
X58972381Y-71024632D01*
X58972381Y-71024632D02*
X59010476Y-71062727D01*
X59010476Y-71062727D02*
X59048571Y-71138918D01*
X59048571Y-71138918D02*
X59048571Y-71329394D01*
X59048571Y-71329394D02*
X59010476Y-71405584D01*
X59010476Y-71405584D02*
X58972381Y-71443680D01*
X58972381Y-71443680D02*
X58896190Y-71481775D01*
X58896190Y-71481775D02*
X58705714Y-71481775D01*
X58705714Y-71481775D02*
X58629524Y-71443680D01*
X58629524Y-71443680D02*
X58591428Y-71405584D01*
X99736691Y-63095489D02*
X99879548Y-63143108D01*
X99879548Y-63143108D02*
X99927167Y-63190727D01*
X99927167Y-63190727D02*
X99974786Y-63285965D01*
X99974786Y-63285965D02*
X99974786Y-63428822D01*
X99974786Y-63428822D02*
X99927167Y-63524060D01*
X99927167Y-63524060D02*
X99879548Y-63571680D01*
X99879548Y-63571680D02*
X99784310Y-63619299D01*
X99784310Y-63619299D02*
X99403358Y-63619299D01*
X99403358Y-63619299D02*
X99403358Y-62619299D01*
X99403358Y-62619299D02*
X99736691Y-62619299D01*
X99736691Y-62619299D02*
X99831929Y-62666918D01*
X99831929Y-62666918D02*
X99879548Y-62714537D01*
X99879548Y-62714537D02*
X99927167Y-62809775D01*
X99927167Y-62809775D02*
X99927167Y-62905013D01*
X99927167Y-62905013D02*
X99879548Y-63000251D01*
X99879548Y-63000251D02*
X99831929Y-63047870D01*
X99831929Y-63047870D02*
X99736691Y-63095489D01*
X99736691Y-63095489D02*
X99403358Y-63095489D01*
X100831929Y-62952632D02*
X100831929Y-63619299D01*
X100403358Y-62952632D02*
X100403358Y-63476441D01*
X100403358Y-63476441D02*
X100450977Y-63571680D01*
X100450977Y-63571680D02*
X100546215Y-63619299D01*
X100546215Y-63619299D02*
X100689072Y-63619299D01*
X100689072Y-63619299D02*
X100784310Y-63571680D01*
X100784310Y-63571680D02*
X100831929Y-63524060D01*
X101736691Y-63571680D02*
X101641453Y-63619299D01*
X101641453Y-63619299D02*
X101450977Y-63619299D01*
X101450977Y-63619299D02*
X101355739Y-63571680D01*
X101355739Y-63571680D02*
X101308120Y-63524060D01*
X101308120Y-63524060D02*
X101260501Y-63428822D01*
X101260501Y-63428822D02*
X101260501Y-63143108D01*
X101260501Y-63143108D02*
X101308120Y-63047870D01*
X101308120Y-63047870D02*
X101355739Y-63000251D01*
X101355739Y-63000251D02*
X101450977Y-62952632D01*
X101450977Y-62952632D02*
X101641453Y-62952632D01*
X101641453Y-62952632D02*
X101736691Y-63000251D01*
X102165263Y-63619299D02*
X102165263Y-62619299D01*
X102260501Y-63238346D02*
X102546215Y-63619299D01*
X102546215Y-62952632D02*
X102165263Y-63333584D01*
X102879549Y-62952632D02*
X103117644Y-63619299D01*
X103355739Y-62952632D02*
X103117644Y-63619299D01*
X103117644Y-63619299D02*
X103022406Y-63857394D01*
X103022406Y-63857394D02*
X102974787Y-63905013D01*
X102974787Y-63905013D02*
X102879549Y-63952632D01*
X99403358Y-64705489D02*
X99736691Y-64705489D01*
X99879548Y-65229299D02*
X99403358Y-65229299D01*
X99403358Y-65229299D02*
X99403358Y-64229299D01*
X99403358Y-64229299D02*
X99879548Y-64229299D01*
X100308120Y-64562632D02*
X100308120Y-65229299D01*
X100308120Y-64657870D02*
X100355739Y-64610251D01*
X100355739Y-64610251D02*
X100450977Y-64562632D01*
X100450977Y-64562632D02*
X100593834Y-64562632D01*
X100593834Y-64562632D02*
X100689072Y-64610251D01*
X100689072Y-64610251D02*
X100736691Y-64705489D01*
X100736691Y-64705489D02*
X100736691Y-65229299D01*
X101641453Y-65229299D02*
X101641453Y-64229299D01*
X101641453Y-65181680D02*
X101546215Y-65229299D01*
X101546215Y-65229299D02*
X101355739Y-65229299D01*
X101355739Y-65229299D02*
X101260501Y-65181680D01*
X101260501Y-65181680D02*
X101212882Y-65134060D01*
X101212882Y-65134060D02*
X101165263Y-65038822D01*
X101165263Y-65038822D02*
X101165263Y-64753108D01*
X101165263Y-64753108D02*
X101212882Y-64657870D01*
X101212882Y-64657870D02*
X101260501Y-64610251D01*
X101260501Y-64610251D02*
X101355739Y-64562632D01*
X101355739Y-64562632D02*
X101546215Y-64562632D01*
X101546215Y-64562632D02*
X101641453Y-64610251D01*
X102498596Y-65181680D02*
X102403358Y-65229299D01*
X102403358Y-65229299D02*
X102212882Y-65229299D01*
X102212882Y-65229299D02*
X102117644Y-65181680D01*
X102117644Y-65181680D02*
X102070025Y-65086441D01*
X102070025Y-65086441D02*
X102070025Y-64705489D01*
X102070025Y-64705489D02*
X102117644Y-64610251D01*
X102117644Y-64610251D02*
X102212882Y-64562632D01*
X102212882Y-64562632D02*
X102403358Y-64562632D01*
X102403358Y-64562632D02*
X102498596Y-64610251D01*
X102498596Y-64610251D02*
X102546215Y-64705489D01*
X102546215Y-64705489D02*
X102546215Y-64800727D01*
X102546215Y-64800727D02*
X102070025Y-64895965D01*
X102974787Y-65229299D02*
X102974787Y-64562632D01*
X102974787Y-64753108D02*
X103022406Y-64657870D01*
X103022406Y-64657870D02*
X103070025Y-64610251D01*
X103070025Y-64610251D02*
X103165263Y-64562632D01*
X103165263Y-64562632D02*
X103260501Y-64562632D01*
X99403358Y-66839299D02*
X99403358Y-65839299D01*
X99403358Y-65839299D02*
X99784310Y-65839299D01*
X99784310Y-65839299D02*
X99879548Y-65886918D01*
X99879548Y-65886918D02*
X99927167Y-65934537D01*
X99927167Y-65934537D02*
X99974786Y-66029775D01*
X99974786Y-66029775D02*
X99974786Y-66172632D01*
X99974786Y-66172632D02*
X99927167Y-66267870D01*
X99927167Y-66267870D02*
X99879548Y-66315489D01*
X99879548Y-66315489D02*
X99784310Y-66363108D01*
X99784310Y-66363108D02*
X99403358Y-66363108D01*
X100403358Y-66839299D02*
X100403358Y-66172632D01*
X100403358Y-66363108D02*
X100450977Y-66267870D01*
X100450977Y-66267870D02*
X100498596Y-66220251D01*
X100498596Y-66220251D02*
X100593834Y-66172632D01*
X100593834Y-66172632D02*
X100689072Y-66172632D01*
X101403358Y-66791680D02*
X101308120Y-66839299D01*
X101308120Y-66839299D02*
X101117644Y-66839299D01*
X101117644Y-66839299D02*
X101022406Y-66791680D01*
X101022406Y-66791680D02*
X100974787Y-66696441D01*
X100974787Y-66696441D02*
X100974787Y-66315489D01*
X100974787Y-66315489D02*
X101022406Y-66220251D01*
X101022406Y-66220251D02*
X101117644Y-66172632D01*
X101117644Y-66172632D02*
X101308120Y-66172632D01*
X101308120Y-66172632D02*
X101403358Y-66220251D01*
X101403358Y-66220251D02*
X101450977Y-66315489D01*
X101450977Y-66315489D02*
X101450977Y-66410727D01*
X101450977Y-66410727D02*
X100974787Y-66505965D01*
X101736692Y-66172632D02*
X102117644Y-66172632D01*
X101879549Y-65839299D02*
X101879549Y-66696441D01*
X101879549Y-66696441D02*
X101927168Y-66791680D01*
X101927168Y-66791680D02*
X102022406Y-66839299D01*
X102022406Y-66839299D02*
X102117644Y-66839299D01*
X102355740Y-66172632D02*
X102879549Y-66172632D01*
X102879549Y-66172632D02*
X102355740Y-66839299D01*
X102355740Y-66839299D02*
X102879549Y-66839299D01*
X103641454Y-66791680D02*
X103546216Y-66839299D01*
X103546216Y-66839299D02*
X103355740Y-66839299D01*
X103355740Y-66839299D02*
X103260502Y-66791680D01*
X103260502Y-66791680D02*
X103212883Y-66696441D01*
X103212883Y-66696441D02*
X103212883Y-66315489D01*
X103212883Y-66315489D02*
X103260502Y-66220251D01*
X103260502Y-66220251D02*
X103355740Y-66172632D01*
X103355740Y-66172632D02*
X103546216Y-66172632D01*
X103546216Y-66172632D02*
X103641454Y-66220251D01*
X103641454Y-66220251D02*
X103689073Y-66315489D01*
X103689073Y-66315489D02*
X103689073Y-66410727D01*
X103689073Y-66410727D02*
X103212883Y-66505965D01*
X104260502Y-66839299D02*
X104165264Y-66791680D01*
X104165264Y-66791680D02*
X104117645Y-66696441D01*
X104117645Y-66696441D02*
X104117645Y-65839299D01*
X99355739Y-68401680D02*
X99498596Y-68449299D01*
X99498596Y-68449299D02*
X99736691Y-68449299D01*
X99736691Y-68449299D02*
X99831929Y-68401680D01*
X99831929Y-68401680D02*
X99879548Y-68354060D01*
X99879548Y-68354060D02*
X99927167Y-68258822D01*
X99927167Y-68258822D02*
X99927167Y-68163584D01*
X99927167Y-68163584D02*
X99879548Y-68068346D01*
X99879548Y-68068346D02*
X99831929Y-68020727D01*
X99831929Y-68020727D02*
X99736691Y-67973108D01*
X99736691Y-67973108D02*
X99546215Y-67925489D01*
X99546215Y-67925489D02*
X99450977Y-67877870D01*
X99450977Y-67877870D02*
X99403358Y-67830251D01*
X99403358Y-67830251D02*
X99355739Y-67735013D01*
X99355739Y-67735013D02*
X99355739Y-67639775D01*
X99355739Y-67639775D02*
X99403358Y-67544537D01*
X99403358Y-67544537D02*
X99450977Y-67496918D01*
X99450977Y-67496918D02*
X99546215Y-67449299D01*
X99546215Y-67449299D02*
X99784310Y-67449299D01*
X99784310Y-67449299D02*
X99927167Y-67496918D01*
X100212882Y-67782632D02*
X100593834Y-67782632D01*
X100355739Y-67449299D02*
X100355739Y-68306441D01*
X100355739Y-68306441D02*
X100403358Y-68401680D01*
X100403358Y-68401680D02*
X100498596Y-68449299D01*
X100498596Y-68449299D02*
X100593834Y-68449299D01*
X101070025Y-68449299D02*
X100974787Y-68401680D01*
X100974787Y-68401680D02*
X100927168Y-68354060D01*
X100927168Y-68354060D02*
X100879549Y-68258822D01*
X100879549Y-68258822D02*
X100879549Y-67973108D01*
X100879549Y-67973108D02*
X100927168Y-67877870D01*
X100927168Y-67877870D02*
X100974787Y-67830251D01*
X100974787Y-67830251D02*
X101070025Y-67782632D01*
X101070025Y-67782632D02*
X101212882Y-67782632D01*
X101212882Y-67782632D02*
X101308120Y-67830251D01*
X101308120Y-67830251D02*
X101355739Y-67877870D01*
X101355739Y-67877870D02*
X101403358Y-67973108D01*
X101403358Y-67973108D02*
X101403358Y-68258822D01*
X101403358Y-68258822D02*
X101355739Y-68354060D01*
X101355739Y-68354060D02*
X101308120Y-68401680D01*
X101308120Y-68401680D02*
X101212882Y-68449299D01*
X101212882Y-68449299D02*
X101070025Y-68449299D01*
X101831930Y-68449299D02*
X101831930Y-67782632D01*
X101831930Y-67973108D02*
X101879549Y-67877870D01*
X101879549Y-67877870D02*
X101927168Y-67830251D01*
X101927168Y-67830251D02*
X102022406Y-67782632D01*
X102022406Y-67782632D02*
X102117644Y-67782632D01*
X102450978Y-68449299D02*
X102450978Y-67782632D01*
X102450978Y-67877870D02*
X102498597Y-67830251D01*
X102498597Y-67830251D02*
X102593835Y-67782632D01*
X102593835Y-67782632D02*
X102736692Y-67782632D01*
X102736692Y-67782632D02*
X102831930Y-67830251D01*
X102831930Y-67830251D02*
X102879549Y-67925489D01*
X102879549Y-67925489D02*
X102879549Y-68449299D01*
X102879549Y-67925489D02*
X102927168Y-67830251D01*
X102927168Y-67830251D02*
X103022406Y-67782632D01*
X103022406Y-67782632D02*
X103165263Y-67782632D01*
X103165263Y-67782632D02*
X103260502Y-67830251D01*
X103260502Y-67830251D02*
X103308121Y-67925489D01*
X103308121Y-67925489D02*
X103308121Y-68449299D01*
X103689073Y-67782632D02*
X103927168Y-68449299D01*
X104165263Y-67782632D02*
X103927168Y-68449299D01*
X103927168Y-68449299D02*
X103831930Y-68687394D01*
X103831930Y-68687394D02*
X103784311Y-68735013D01*
X103784311Y-68735013D02*
X103689073Y-68782632D01*
X39763810Y-40201775D02*
X40030477Y-41001775D01*
X40030477Y-41001775D02*
X40297143Y-40201775D01*
X40563810Y-41001775D02*
X40563810Y-40201775D01*
X40944762Y-41001775D02*
X40944762Y-40201775D01*
X40944762Y-40201775D02*
X41401905Y-41001775D01*
X41401905Y-41001775D02*
X41401905Y-40201775D01*
X118103809Y-61626537D02*
X118065714Y-61588441D01*
X118065714Y-61588441D02*
X117989523Y-61474156D01*
X117989523Y-61474156D02*
X117951428Y-61397965D01*
X117951428Y-61397965D02*
X117913333Y-61283680D01*
X117913333Y-61283680D02*
X117875238Y-61093203D01*
X117875238Y-61093203D02*
X117875238Y-60940822D01*
X117875238Y-60940822D02*
X117913333Y-60750346D01*
X117913333Y-60750346D02*
X117951428Y-60636060D01*
X117951428Y-60636060D02*
X117989523Y-60559870D01*
X117989523Y-60559870D02*
X118065714Y-60445584D01*
X118065714Y-60445584D02*
X118103809Y-60407489D01*
X118408571Y-61321775D02*
X118408571Y-60521775D01*
X118408571Y-60521775D02*
X118599047Y-60521775D01*
X118599047Y-60521775D02*
X118713333Y-60559870D01*
X118713333Y-60559870D02*
X118789523Y-60636060D01*
X118789523Y-60636060D02*
X118827618Y-60712251D01*
X118827618Y-60712251D02*
X118865714Y-60864632D01*
X118865714Y-60864632D02*
X118865714Y-60978918D01*
X118865714Y-60978918D02*
X118827618Y-61131299D01*
X118827618Y-61131299D02*
X118789523Y-61207489D01*
X118789523Y-61207489D02*
X118713333Y-61283680D01*
X118713333Y-61283680D02*
X118599047Y-61321775D01*
X118599047Y-61321775D02*
X118408571Y-61321775D01*
X119170475Y-60597965D02*
X119208571Y-60559870D01*
X119208571Y-60559870D02*
X119284761Y-60521775D01*
X119284761Y-60521775D02*
X119475237Y-60521775D01*
X119475237Y-60521775D02*
X119551428Y-60559870D01*
X119551428Y-60559870D02*
X119589523Y-60597965D01*
X119589523Y-60597965D02*
X119627618Y-60674156D01*
X119627618Y-60674156D02*
X119627618Y-60750346D01*
X119627618Y-60750346D02*
X119589523Y-60864632D01*
X119589523Y-60864632D02*
X119132380Y-61321775D01*
X119132380Y-61321775D02*
X119627618Y-61321775D01*
X119894285Y-60521775D02*
X120389523Y-60521775D01*
X120389523Y-60521775D02*
X120122857Y-60826537D01*
X120122857Y-60826537D02*
X120237142Y-60826537D01*
X120237142Y-60826537D02*
X120313333Y-60864632D01*
X120313333Y-60864632D02*
X120351428Y-60902727D01*
X120351428Y-60902727D02*
X120389523Y-60978918D01*
X120389523Y-60978918D02*
X120389523Y-61169394D01*
X120389523Y-61169394D02*
X120351428Y-61245584D01*
X120351428Y-61245584D02*
X120313333Y-61283680D01*
X120313333Y-61283680D02*
X120237142Y-61321775D01*
X120237142Y-61321775D02*
X120008571Y-61321775D01*
X120008571Y-61321775D02*
X119932380Y-61283680D01*
X119932380Y-61283680D02*
X119894285Y-61245584D01*
X120656190Y-61626537D02*
X120694285Y-61588441D01*
X120694285Y-61588441D02*
X120770476Y-61474156D01*
X120770476Y-61474156D02*
X120808571Y-61397965D01*
X120808571Y-61397965D02*
X120846666Y-61283680D01*
X120846666Y-61283680D02*
X120884762Y-61093203D01*
X120884762Y-61093203D02*
X120884762Y-60940822D01*
X120884762Y-60940822D02*
X120846666Y-60750346D01*
X120846666Y-60750346D02*
X120808571Y-60636060D01*
X120808571Y-60636060D02*
X120770476Y-60559870D01*
X120770476Y-60559870D02*
X120694285Y-60445584D01*
X120694285Y-60445584D02*
X120656190Y-60407489D01*
X103340000Y-42741775D02*
X103492381Y-42741775D01*
X103492381Y-42741775D02*
X103568571Y-42779870D01*
X103568571Y-42779870D02*
X103644762Y-42856060D01*
X103644762Y-42856060D02*
X103682857Y-43008441D01*
X103682857Y-43008441D02*
X103682857Y-43275108D01*
X103682857Y-43275108D02*
X103644762Y-43427489D01*
X103644762Y-43427489D02*
X103568571Y-43503680D01*
X103568571Y-43503680D02*
X103492381Y-43541775D01*
X103492381Y-43541775D02*
X103340000Y-43541775D01*
X103340000Y-43541775D02*
X103263809Y-43503680D01*
X103263809Y-43503680D02*
X103187619Y-43427489D01*
X103187619Y-43427489D02*
X103149523Y-43275108D01*
X103149523Y-43275108D02*
X103149523Y-43008441D01*
X103149523Y-43008441D02*
X103187619Y-42856060D01*
X103187619Y-42856060D02*
X103263809Y-42779870D01*
X103263809Y-42779870D02*
X103340000Y-42741775D01*
X104025714Y-42741775D02*
X104025714Y-43389394D01*
X104025714Y-43389394D02*
X104063809Y-43465584D01*
X104063809Y-43465584D02*
X104101904Y-43503680D01*
X104101904Y-43503680D02*
X104178095Y-43541775D01*
X104178095Y-43541775D02*
X104330476Y-43541775D01*
X104330476Y-43541775D02*
X104406666Y-43503680D01*
X104406666Y-43503680D02*
X104444761Y-43465584D01*
X104444761Y-43465584D02*
X104482857Y-43389394D01*
X104482857Y-43389394D02*
X104482857Y-42741775D01*
X104749523Y-42741775D02*
X105206666Y-42741775D01*
X104978094Y-43541775D02*
X104978094Y-42741775D01*
X58245713Y-90785489D02*
X58388570Y-90833108D01*
X58388570Y-90833108D02*
X58436189Y-90880727D01*
X58436189Y-90880727D02*
X58483808Y-90975965D01*
X58483808Y-90975965D02*
X58483808Y-91118822D01*
X58483808Y-91118822D02*
X58436189Y-91214060D01*
X58436189Y-91214060D02*
X58388570Y-91261680D01*
X58388570Y-91261680D02*
X58293332Y-91309299D01*
X58293332Y-91309299D02*
X57912380Y-91309299D01*
X57912380Y-91309299D02*
X57912380Y-90309299D01*
X57912380Y-90309299D02*
X58245713Y-90309299D01*
X58245713Y-90309299D02*
X58340951Y-90356918D01*
X58340951Y-90356918D02*
X58388570Y-90404537D01*
X58388570Y-90404537D02*
X58436189Y-90499775D01*
X58436189Y-90499775D02*
X58436189Y-90595013D01*
X58436189Y-90595013D02*
X58388570Y-90690251D01*
X58388570Y-90690251D02*
X58340951Y-90737870D01*
X58340951Y-90737870D02*
X58245713Y-90785489D01*
X58245713Y-90785489D02*
X57912380Y-90785489D01*
X59340951Y-90642632D02*
X59340951Y-91309299D01*
X58912380Y-90642632D02*
X58912380Y-91166441D01*
X58912380Y-91166441D02*
X58959999Y-91261680D01*
X58959999Y-91261680D02*
X59055237Y-91309299D01*
X59055237Y-91309299D02*
X59198094Y-91309299D01*
X59198094Y-91309299D02*
X59293332Y-91261680D01*
X59293332Y-91261680D02*
X59340951Y-91214060D01*
X59674285Y-90642632D02*
X60055237Y-90642632D01*
X59817142Y-90309299D02*
X59817142Y-91166441D01*
X59817142Y-91166441D02*
X59864761Y-91261680D01*
X59864761Y-91261680D02*
X59959999Y-91309299D01*
X59959999Y-91309299D02*
X60055237Y-91309299D01*
X60245714Y-90642632D02*
X60626666Y-90642632D01*
X60388571Y-90309299D02*
X60388571Y-91166441D01*
X60388571Y-91166441D02*
X60436190Y-91261680D01*
X60436190Y-91261680D02*
X60531428Y-91309299D01*
X60531428Y-91309299D02*
X60626666Y-91309299D01*
X61102857Y-91309299D02*
X61007619Y-91261680D01*
X61007619Y-91261680D02*
X60960000Y-91214060D01*
X60960000Y-91214060D02*
X60912381Y-91118822D01*
X60912381Y-91118822D02*
X60912381Y-90833108D01*
X60912381Y-90833108D02*
X60960000Y-90737870D01*
X60960000Y-90737870D02*
X61007619Y-90690251D01*
X61007619Y-90690251D02*
X61102857Y-90642632D01*
X61102857Y-90642632D02*
X61245714Y-90642632D01*
X61245714Y-90642632D02*
X61340952Y-90690251D01*
X61340952Y-90690251D02*
X61388571Y-90737870D01*
X61388571Y-90737870D02*
X61436190Y-90833108D01*
X61436190Y-90833108D02*
X61436190Y-91118822D01*
X61436190Y-91118822D02*
X61388571Y-91214060D01*
X61388571Y-91214060D02*
X61340952Y-91261680D01*
X61340952Y-91261680D02*
X61245714Y-91309299D01*
X61245714Y-91309299D02*
X61102857Y-91309299D01*
X61864762Y-90642632D02*
X61864762Y-91309299D01*
X61864762Y-90737870D02*
X61912381Y-90690251D01*
X61912381Y-90690251D02*
X62007619Y-90642632D01*
X62007619Y-90642632D02*
X62150476Y-90642632D01*
X62150476Y-90642632D02*
X62245714Y-90690251D01*
X62245714Y-90690251D02*
X62293333Y-90785489D01*
X62293333Y-90785489D02*
X62293333Y-91309299D01*
X63483810Y-90404537D02*
X63531429Y-90356918D01*
X63531429Y-90356918D02*
X63626667Y-90309299D01*
X63626667Y-90309299D02*
X63864762Y-90309299D01*
X63864762Y-90309299D02*
X63960000Y-90356918D01*
X63960000Y-90356918D02*
X64007619Y-90404537D01*
X64007619Y-90404537D02*
X64055238Y-90499775D01*
X64055238Y-90499775D02*
X64055238Y-90595013D01*
X64055238Y-90595013D02*
X64007619Y-90737870D01*
X64007619Y-90737870D02*
X63436191Y-91309299D01*
X63436191Y-91309299D02*
X64055238Y-91309299D01*
X77768571Y-81641775D02*
X77768571Y-80841775D01*
X77768571Y-80841775D02*
X77959047Y-80841775D01*
X77959047Y-80841775D02*
X78073333Y-80879870D01*
X78073333Y-80879870D02*
X78149523Y-80956060D01*
X78149523Y-80956060D02*
X78187618Y-81032251D01*
X78187618Y-81032251D02*
X78225714Y-81184632D01*
X78225714Y-81184632D02*
X78225714Y-81298918D01*
X78225714Y-81298918D02*
X78187618Y-81451299D01*
X78187618Y-81451299D02*
X78149523Y-81527489D01*
X78149523Y-81527489D02*
X78073333Y-81603680D01*
X78073333Y-81603680D02*
X77959047Y-81641775D01*
X77959047Y-81641775D02*
X77768571Y-81641775D01*
X78987618Y-81641775D02*
X78530475Y-81641775D01*
X78759047Y-81641775D02*
X78759047Y-80841775D01*
X78759047Y-80841775D02*
X78682856Y-80956060D01*
X78682856Y-80956060D02*
X78606666Y-81032251D01*
X78606666Y-81032251D02*
X78530475Y-81070346D01*
X79368571Y-81641775D02*
X79520952Y-81641775D01*
X79520952Y-81641775D02*
X79597142Y-81603680D01*
X79597142Y-81603680D02*
X79635238Y-81565584D01*
X79635238Y-81565584D02*
X79711428Y-81451299D01*
X79711428Y-81451299D02*
X79749523Y-81298918D01*
X79749523Y-81298918D02*
X79749523Y-80994156D01*
X79749523Y-80994156D02*
X79711428Y-80917965D01*
X79711428Y-80917965D02*
X79673333Y-80879870D01*
X79673333Y-80879870D02*
X79597142Y-80841775D01*
X79597142Y-80841775D02*
X79444761Y-80841775D01*
X79444761Y-80841775D02*
X79368571Y-80879870D01*
X79368571Y-80879870D02*
X79330476Y-80917965D01*
X79330476Y-80917965D02*
X79292380Y-80994156D01*
X79292380Y-80994156D02*
X79292380Y-81184632D01*
X79292380Y-81184632D02*
X79330476Y-81260822D01*
X79330476Y-81260822D02*
X79368571Y-81298918D01*
X79368571Y-81298918D02*
X79444761Y-81337013D01*
X79444761Y-81337013D02*
X79597142Y-81337013D01*
X79597142Y-81337013D02*
X79673333Y-81298918D01*
X79673333Y-81298918D02*
X79711428Y-81260822D01*
X79711428Y-81260822D02*
X79749523Y-81184632D01*
X50209524Y-71481775D02*
X50209524Y-70681775D01*
X50209524Y-70681775D02*
X50400000Y-70681775D01*
X50400000Y-70681775D02*
X50514286Y-70719870D01*
X50514286Y-70719870D02*
X50590476Y-70796060D01*
X50590476Y-70796060D02*
X50628571Y-70872251D01*
X50628571Y-70872251D02*
X50666667Y-71024632D01*
X50666667Y-71024632D02*
X50666667Y-71138918D01*
X50666667Y-71138918D02*
X50628571Y-71291299D01*
X50628571Y-71291299D02*
X50590476Y-71367489D01*
X50590476Y-71367489D02*
X50514286Y-71443680D01*
X50514286Y-71443680D02*
X50400000Y-71481775D01*
X50400000Y-71481775D02*
X50209524Y-71481775D01*
X51352381Y-70948441D02*
X51352381Y-71481775D01*
X51161905Y-70643680D02*
X50971428Y-71215108D01*
X50971428Y-71215108D02*
X51466667Y-71215108D01*
X118770476Y-80879870D02*
X118694286Y-80841775D01*
X118694286Y-80841775D02*
X118580000Y-80841775D01*
X118580000Y-80841775D02*
X118465714Y-80879870D01*
X118465714Y-80879870D02*
X118389524Y-80956060D01*
X118389524Y-80956060D02*
X118351429Y-81032251D01*
X118351429Y-81032251D02*
X118313333Y-81184632D01*
X118313333Y-81184632D02*
X118313333Y-81298918D01*
X118313333Y-81298918D02*
X118351429Y-81451299D01*
X118351429Y-81451299D02*
X118389524Y-81527489D01*
X118389524Y-81527489D02*
X118465714Y-81603680D01*
X118465714Y-81603680D02*
X118580000Y-81641775D01*
X118580000Y-81641775D02*
X118656191Y-81641775D01*
X118656191Y-81641775D02*
X118770476Y-81603680D01*
X118770476Y-81603680D02*
X118808572Y-81565584D01*
X118808572Y-81565584D02*
X118808572Y-81298918D01*
X118808572Y-81298918D02*
X118656191Y-81298918D01*
X119151429Y-81641775D02*
X119151429Y-80841775D01*
X119151429Y-80841775D02*
X119608572Y-81641775D01*
X119608572Y-81641775D02*
X119608572Y-80841775D01*
X119989524Y-81641775D02*
X119989524Y-80841775D01*
X119989524Y-80841775D02*
X120180000Y-80841775D01*
X120180000Y-80841775D02*
X120294286Y-80879870D01*
X120294286Y-80879870D02*
X120370476Y-80956060D01*
X120370476Y-80956060D02*
X120408571Y-81032251D01*
X120408571Y-81032251D02*
X120446667Y-81184632D01*
X120446667Y-81184632D02*
X120446667Y-81298918D01*
X120446667Y-81298918D02*
X120408571Y-81451299D01*
X120408571Y-81451299D02*
X120370476Y-81527489D01*
X120370476Y-81527489D02*
X120294286Y-81603680D01*
X120294286Y-81603680D02*
X120180000Y-81641775D01*
X120180000Y-81641775D02*
X119989524Y-81641775D01*
X123393333Y-52901775D02*
X123660000Y-53701775D01*
X123660000Y-53701775D02*
X123926666Y-52901775D01*
X124650476Y-53625584D02*
X124612380Y-53663680D01*
X124612380Y-53663680D02*
X124498095Y-53701775D01*
X124498095Y-53701775D02*
X124421904Y-53701775D01*
X124421904Y-53701775D02*
X124307618Y-53663680D01*
X124307618Y-53663680D02*
X124231428Y-53587489D01*
X124231428Y-53587489D02*
X124193333Y-53511299D01*
X124193333Y-53511299D02*
X124155237Y-53358918D01*
X124155237Y-53358918D02*
X124155237Y-53244632D01*
X124155237Y-53244632D02*
X124193333Y-53092251D01*
X124193333Y-53092251D02*
X124231428Y-53016060D01*
X124231428Y-53016060D02*
X124307618Y-52939870D01*
X124307618Y-52939870D02*
X124421904Y-52901775D01*
X124421904Y-52901775D02*
X124498095Y-52901775D01*
X124498095Y-52901775D02*
X124612380Y-52939870D01*
X124612380Y-52939870D02*
X124650476Y-52977965D01*
X125450476Y-53625584D02*
X125412380Y-53663680D01*
X125412380Y-53663680D02*
X125298095Y-53701775D01*
X125298095Y-53701775D02*
X125221904Y-53701775D01*
X125221904Y-53701775D02*
X125107618Y-53663680D01*
X125107618Y-53663680D02*
X125031428Y-53587489D01*
X125031428Y-53587489D02*
X124993333Y-53511299D01*
X124993333Y-53511299D02*
X124955237Y-53358918D01*
X124955237Y-53358918D02*
X124955237Y-53244632D01*
X124955237Y-53244632D02*
X124993333Y-53092251D01*
X124993333Y-53092251D02*
X125031428Y-53016060D01*
X125031428Y-53016060D02*
X125107618Y-52939870D01*
X125107618Y-52939870D02*
X125221904Y-52901775D01*
X125221904Y-52901775D02*
X125298095Y-52901775D01*
X125298095Y-52901775D02*
X125412380Y-52939870D01*
X125412380Y-52939870D02*
X125450476Y-52977965D01*
X70129523Y-70681775D02*
X70586666Y-70681775D01*
X70358094Y-71481775D02*
X70358094Y-70681775D01*
X70777142Y-70681775D02*
X71310476Y-71481775D01*
X71310476Y-70681775D02*
X70777142Y-71481775D01*
X71767619Y-70681775D02*
X71843809Y-70681775D01*
X71843809Y-70681775D02*
X71920000Y-70719870D01*
X71920000Y-70719870D02*
X71958095Y-70757965D01*
X71958095Y-70757965D02*
X71996190Y-70834156D01*
X71996190Y-70834156D02*
X72034285Y-70986537D01*
X72034285Y-70986537D02*
X72034285Y-71177013D01*
X72034285Y-71177013D02*
X71996190Y-71329394D01*
X71996190Y-71329394D02*
X71958095Y-71405584D01*
X71958095Y-71405584D02*
X71920000Y-71443680D01*
X71920000Y-71443680D02*
X71843809Y-71481775D01*
X71843809Y-71481775D02*
X71767619Y-71481775D01*
X71767619Y-71481775D02*
X71691428Y-71443680D01*
X71691428Y-71443680D02*
X71653333Y-71405584D01*
X71653333Y-71405584D02*
X71615238Y-71329394D01*
X71615238Y-71329394D02*
X71577142Y-71177013D01*
X71577142Y-71177013D02*
X71577142Y-70986537D01*
X71577142Y-70986537D02*
X71615238Y-70834156D01*
X71615238Y-70834156D02*
X71653333Y-70757965D01*
X71653333Y-70757965D02*
X71691428Y-70719870D01*
X71691428Y-70719870D02*
X71767619Y-70681775D01*
X62528571Y-41001775D02*
X62528571Y-40201775D01*
X62528571Y-40201775D02*
X62719047Y-40201775D01*
X62719047Y-40201775D02*
X62833333Y-40239870D01*
X62833333Y-40239870D02*
X62909523Y-40316060D01*
X62909523Y-40316060D02*
X62947618Y-40392251D01*
X62947618Y-40392251D02*
X62985714Y-40544632D01*
X62985714Y-40544632D02*
X62985714Y-40658918D01*
X62985714Y-40658918D02*
X62947618Y-40811299D01*
X62947618Y-40811299D02*
X62909523Y-40887489D01*
X62909523Y-40887489D02*
X62833333Y-40963680D01*
X62833333Y-40963680D02*
X62719047Y-41001775D01*
X62719047Y-41001775D02*
X62528571Y-41001775D01*
X63252380Y-40201775D02*
X63747618Y-40201775D01*
X63747618Y-40201775D02*
X63480952Y-40506537D01*
X63480952Y-40506537D02*
X63595237Y-40506537D01*
X63595237Y-40506537D02*
X63671428Y-40544632D01*
X63671428Y-40544632D02*
X63709523Y-40582727D01*
X63709523Y-40582727D02*
X63747618Y-40658918D01*
X63747618Y-40658918D02*
X63747618Y-40849394D01*
X63747618Y-40849394D02*
X63709523Y-40925584D01*
X63709523Y-40925584D02*
X63671428Y-40963680D01*
X63671428Y-40963680D02*
X63595237Y-41001775D01*
X63595237Y-41001775D02*
X63366666Y-41001775D01*
X63366666Y-41001775D02*
X63290475Y-40963680D01*
X63290475Y-40963680D02*
X63252380Y-40925584D01*
X64052380Y-40277965D02*
X64090476Y-40239870D01*
X64090476Y-40239870D02*
X64166666Y-40201775D01*
X64166666Y-40201775D02*
X64357142Y-40201775D01*
X64357142Y-40201775D02*
X64433333Y-40239870D01*
X64433333Y-40239870D02*
X64471428Y-40277965D01*
X64471428Y-40277965D02*
X64509523Y-40354156D01*
X64509523Y-40354156D02*
X64509523Y-40430346D01*
X64509523Y-40430346D02*
X64471428Y-40544632D01*
X64471428Y-40544632D02*
X64014285Y-41001775D01*
X64014285Y-41001775D02*
X64509523Y-41001775D01*
X59988571Y-71481775D02*
X59988571Y-70681775D01*
X59988571Y-70681775D02*
X60179047Y-70681775D01*
X60179047Y-70681775D02*
X60293333Y-70719870D01*
X60293333Y-70719870D02*
X60369523Y-70796060D01*
X60369523Y-70796060D02*
X60407618Y-70872251D01*
X60407618Y-70872251D02*
X60445714Y-71024632D01*
X60445714Y-71024632D02*
X60445714Y-71138918D01*
X60445714Y-71138918D02*
X60407618Y-71291299D01*
X60407618Y-71291299D02*
X60369523Y-71367489D01*
X60369523Y-71367489D02*
X60293333Y-71443680D01*
X60293333Y-71443680D02*
X60179047Y-71481775D01*
X60179047Y-71481775D02*
X59988571Y-71481775D01*
X61207618Y-71481775D02*
X60750475Y-71481775D01*
X60979047Y-71481775D02*
X60979047Y-70681775D01*
X60979047Y-70681775D02*
X60902856Y-70796060D01*
X60902856Y-70796060D02*
X60826666Y-70872251D01*
X60826666Y-70872251D02*
X60750475Y-70910346D01*
X61664761Y-71024632D02*
X61588571Y-70986537D01*
X61588571Y-70986537D02*
X61550476Y-70948441D01*
X61550476Y-70948441D02*
X61512380Y-70872251D01*
X61512380Y-70872251D02*
X61512380Y-70834156D01*
X61512380Y-70834156D02*
X61550476Y-70757965D01*
X61550476Y-70757965D02*
X61588571Y-70719870D01*
X61588571Y-70719870D02*
X61664761Y-70681775D01*
X61664761Y-70681775D02*
X61817142Y-70681775D01*
X61817142Y-70681775D02*
X61893333Y-70719870D01*
X61893333Y-70719870D02*
X61931428Y-70757965D01*
X61931428Y-70757965D02*
X61969523Y-70834156D01*
X61969523Y-70834156D02*
X61969523Y-70872251D01*
X61969523Y-70872251D02*
X61931428Y-70948441D01*
X61931428Y-70948441D02*
X61893333Y-70986537D01*
X61893333Y-70986537D02*
X61817142Y-71024632D01*
X61817142Y-71024632D02*
X61664761Y-71024632D01*
X61664761Y-71024632D02*
X61588571Y-71062727D01*
X61588571Y-71062727D02*
X61550476Y-71100822D01*
X61550476Y-71100822D02*
X61512380Y-71177013D01*
X61512380Y-71177013D02*
X61512380Y-71329394D01*
X61512380Y-71329394D02*
X61550476Y-71405584D01*
X61550476Y-71405584D02*
X61588571Y-71443680D01*
X61588571Y-71443680D02*
X61664761Y-71481775D01*
X61664761Y-71481775D02*
X61817142Y-71481775D01*
X61817142Y-71481775D02*
X61893333Y-71443680D01*
X61893333Y-71443680D02*
X61931428Y-71405584D01*
X61931428Y-71405584D02*
X61969523Y-71329394D01*
X61969523Y-71329394D02*
X61969523Y-71177013D01*
X61969523Y-71177013D02*
X61931428Y-71100822D01*
X61931428Y-71100822D02*
X61893333Y-71062727D01*
X61893333Y-71062727D02*
X61817142Y-71024632D01*
X103965713Y-90785489D02*
X104108570Y-90833108D01*
X104108570Y-90833108D02*
X104156189Y-90880727D01*
X104156189Y-90880727D02*
X104203808Y-90975965D01*
X104203808Y-90975965D02*
X104203808Y-91118822D01*
X104203808Y-91118822D02*
X104156189Y-91214060D01*
X104156189Y-91214060D02*
X104108570Y-91261680D01*
X104108570Y-91261680D02*
X104013332Y-91309299D01*
X104013332Y-91309299D02*
X103632380Y-91309299D01*
X103632380Y-91309299D02*
X103632380Y-90309299D01*
X103632380Y-90309299D02*
X103965713Y-90309299D01*
X103965713Y-90309299D02*
X104060951Y-90356918D01*
X104060951Y-90356918D02*
X104108570Y-90404537D01*
X104108570Y-90404537D02*
X104156189Y-90499775D01*
X104156189Y-90499775D02*
X104156189Y-90595013D01*
X104156189Y-90595013D02*
X104108570Y-90690251D01*
X104108570Y-90690251D02*
X104060951Y-90737870D01*
X104060951Y-90737870D02*
X103965713Y-90785489D01*
X103965713Y-90785489D02*
X103632380Y-90785489D01*
X105060951Y-90642632D02*
X105060951Y-91309299D01*
X104632380Y-90642632D02*
X104632380Y-91166441D01*
X104632380Y-91166441D02*
X104679999Y-91261680D01*
X104679999Y-91261680D02*
X104775237Y-91309299D01*
X104775237Y-91309299D02*
X104918094Y-91309299D01*
X104918094Y-91309299D02*
X105013332Y-91261680D01*
X105013332Y-91261680D02*
X105060951Y-91214060D01*
X105394285Y-90642632D02*
X105775237Y-90642632D01*
X105537142Y-90309299D02*
X105537142Y-91166441D01*
X105537142Y-91166441D02*
X105584761Y-91261680D01*
X105584761Y-91261680D02*
X105679999Y-91309299D01*
X105679999Y-91309299D02*
X105775237Y-91309299D01*
X105965714Y-90642632D02*
X106346666Y-90642632D01*
X106108571Y-90309299D02*
X106108571Y-91166441D01*
X106108571Y-91166441D02*
X106156190Y-91261680D01*
X106156190Y-91261680D02*
X106251428Y-91309299D01*
X106251428Y-91309299D02*
X106346666Y-91309299D01*
X106822857Y-91309299D02*
X106727619Y-91261680D01*
X106727619Y-91261680D02*
X106680000Y-91214060D01*
X106680000Y-91214060D02*
X106632381Y-91118822D01*
X106632381Y-91118822D02*
X106632381Y-90833108D01*
X106632381Y-90833108D02*
X106680000Y-90737870D01*
X106680000Y-90737870D02*
X106727619Y-90690251D01*
X106727619Y-90690251D02*
X106822857Y-90642632D01*
X106822857Y-90642632D02*
X106965714Y-90642632D01*
X106965714Y-90642632D02*
X107060952Y-90690251D01*
X107060952Y-90690251D02*
X107108571Y-90737870D01*
X107108571Y-90737870D02*
X107156190Y-90833108D01*
X107156190Y-90833108D02*
X107156190Y-91118822D01*
X107156190Y-91118822D02*
X107108571Y-91214060D01*
X107108571Y-91214060D02*
X107060952Y-91261680D01*
X107060952Y-91261680D02*
X106965714Y-91309299D01*
X106965714Y-91309299D02*
X106822857Y-91309299D01*
X107584762Y-90642632D02*
X107584762Y-91309299D01*
X107584762Y-90737870D02*
X107632381Y-90690251D01*
X107632381Y-90690251D02*
X107727619Y-90642632D01*
X107727619Y-90642632D02*
X107870476Y-90642632D01*
X107870476Y-90642632D02*
X107965714Y-90690251D01*
X107965714Y-90690251D02*
X108013333Y-90785489D01*
X108013333Y-90785489D02*
X108013333Y-91309299D01*
X109727619Y-90309299D02*
X109251429Y-90309299D01*
X109251429Y-90309299D02*
X109203810Y-90785489D01*
X109203810Y-90785489D02*
X109251429Y-90737870D01*
X109251429Y-90737870D02*
X109346667Y-90690251D01*
X109346667Y-90690251D02*
X109584762Y-90690251D01*
X109584762Y-90690251D02*
X109680000Y-90737870D01*
X109680000Y-90737870D02*
X109727619Y-90785489D01*
X109727619Y-90785489D02*
X109775238Y-90880727D01*
X109775238Y-90880727D02*
X109775238Y-91118822D01*
X109775238Y-91118822D02*
X109727619Y-91214060D01*
X109727619Y-91214060D02*
X109680000Y-91261680D01*
X109680000Y-91261680D02*
X109584762Y-91309299D01*
X109584762Y-91309299D02*
X109346667Y-91309299D01*
X109346667Y-91309299D02*
X109251429Y-91261680D01*
X109251429Y-91261680D02*
X109203810Y-91214060D01*
X68065714Y-71481775D02*
X67799047Y-71100822D01*
X67608571Y-71481775D02*
X67608571Y-70681775D01*
X67608571Y-70681775D02*
X67913333Y-70681775D01*
X67913333Y-70681775D02*
X67989523Y-70719870D01*
X67989523Y-70719870D02*
X68027618Y-70757965D01*
X68027618Y-70757965D02*
X68065714Y-70834156D01*
X68065714Y-70834156D02*
X68065714Y-70948441D01*
X68065714Y-70948441D02*
X68027618Y-71024632D01*
X68027618Y-71024632D02*
X67989523Y-71062727D01*
X67989523Y-71062727D02*
X67913333Y-71100822D01*
X67913333Y-71100822D02*
X67608571Y-71100822D01*
X68332380Y-70681775D02*
X68865714Y-71481775D01*
X68865714Y-70681775D02*
X68332380Y-71481775D01*
X69322857Y-70681775D02*
X69399047Y-70681775D01*
X69399047Y-70681775D02*
X69475238Y-70719870D01*
X69475238Y-70719870D02*
X69513333Y-70757965D01*
X69513333Y-70757965D02*
X69551428Y-70834156D01*
X69551428Y-70834156D02*
X69589523Y-70986537D01*
X69589523Y-70986537D02*
X69589523Y-71177013D01*
X69589523Y-71177013D02*
X69551428Y-71329394D01*
X69551428Y-71329394D02*
X69513333Y-71405584D01*
X69513333Y-71405584D02*
X69475238Y-71443680D01*
X69475238Y-71443680D02*
X69399047Y-71481775D01*
X69399047Y-71481775D02*
X69322857Y-71481775D01*
X69322857Y-71481775D02*
X69246666Y-71443680D01*
X69246666Y-71443680D02*
X69208571Y-71405584D01*
X69208571Y-71405584D02*
X69170476Y-71329394D01*
X69170476Y-71329394D02*
X69132380Y-71177013D01*
X69132380Y-71177013D02*
X69132380Y-70986537D01*
X69132380Y-70986537D02*
X69170476Y-70834156D01*
X69170476Y-70834156D02*
X69208571Y-70757965D01*
X69208571Y-70757965D02*
X69246666Y-70719870D01*
X69246666Y-70719870D02*
X69322857Y-70681775D01*
X100529755Y-50780728D02*
X100529755Y-49780728D01*
X100529755Y-50256918D02*
X101101183Y-50256918D01*
X101101183Y-50780728D02*
X101101183Y-49780728D01*
X102148802Y-50685489D02*
X102101183Y-50733109D01*
X102101183Y-50733109D02*
X101958326Y-50780728D01*
X101958326Y-50780728D02*
X101863088Y-50780728D01*
X101863088Y-50780728D02*
X101720231Y-50733109D01*
X101720231Y-50733109D02*
X101624993Y-50637870D01*
X101624993Y-50637870D02*
X101577374Y-50542632D01*
X101577374Y-50542632D02*
X101529755Y-50352156D01*
X101529755Y-50352156D02*
X101529755Y-50209299D01*
X101529755Y-50209299D02*
X101577374Y-50018823D01*
X101577374Y-50018823D02*
X101624993Y-49923585D01*
X101624993Y-49923585D02*
X101720231Y-49828347D01*
X101720231Y-49828347D02*
X101863088Y-49780728D01*
X101863088Y-49780728D02*
X101958326Y-49780728D01*
X101958326Y-49780728D02*
X102101183Y-49828347D01*
X102101183Y-49828347D02*
X102148802Y-49875966D01*
X102577374Y-50399775D02*
X103339279Y-50399775D01*
X103767850Y-50733109D02*
X103910707Y-50780728D01*
X103910707Y-50780728D02*
X104148802Y-50780728D01*
X104148802Y-50780728D02*
X104244040Y-50733109D01*
X104244040Y-50733109D02*
X104291659Y-50685489D01*
X104291659Y-50685489D02*
X104339278Y-50590251D01*
X104339278Y-50590251D02*
X104339278Y-50495013D01*
X104339278Y-50495013D02*
X104291659Y-50399775D01*
X104291659Y-50399775D02*
X104244040Y-50352156D01*
X104244040Y-50352156D02*
X104148802Y-50304537D01*
X104148802Y-50304537D02*
X103958326Y-50256918D01*
X103958326Y-50256918D02*
X103863088Y-50209299D01*
X103863088Y-50209299D02*
X103815469Y-50161680D01*
X103815469Y-50161680D02*
X103767850Y-50066442D01*
X103767850Y-50066442D02*
X103767850Y-49971204D01*
X103767850Y-49971204D02*
X103815469Y-49875966D01*
X103815469Y-49875966D02*
X103863088Y-49828347D01*
X103863088Y-49828347D02*
X103958326Y-49780728D01*
X103958326Y-49780728D02*
X104196421Y-49780728D01*
X104196421Y-49780728D02*
X104339278Y-49828347D01*
X105339278Y-50780728D02*
X105005945Y-50304537D01*
X104767850Y-50780728D02*
X104767850Y-49780728D01*
X104767850Y-49780728D02*
X105148802Y-49780728D01*
X105148802Y-49780728D02*
X105244040Y-49828347D01*
X105244040Y-49828347D02*
X105291659Y-49875966D01*
X105291659Y-49875966D02*
X105339278Y-49971204D01*
X105339278Y-49971204D02*
X105339278Y-50114061D01*
X105339278Y-50114061D02*
X105291659Y-50209299D01*
X105291659Y-50209299D02*
X105244040Y-50256918D01*
X105244040Y-50256918D02*
X105148802Y-50304537D01*
X105148802Y-50304537D02*
X104767850Y-50304537D01*
X106244040Y-49780728D02*
X105767850Y-49780728D01*
X105767850Y-49780728D02*
X105720231Y-50256918D01*
X105720231Y-50256918D02*
X105767850Y-50209299D01*
X105767850Y-50209299D02*
X105863088Y-50161680D01*
X105863088Y-50161680D02*
X106101183Y-50161680D01*
X106101183Y-50161680D02*
X106196421Y-50209299D01*
X106196421Y-50209299D02*
X106244040Y-50256918D01*
X106244040Y-50256918D02*
X106291659Y-50352156D01*
X106291659Y-50352156D02*
X106291659Y-50590251D01*
X106291659Y-50590251D02*
X106244040Y-50685489D01*
X106244040Y-50685489D02*
X106196421Y-50733109D01*
X106196421Y-50733109D02*
X106101183Y-50780728D01*
X106101183Y-50780728D02*
X105863088Y-50780728D01*
X105863088Y-50780728D02*
X105767850Y-50733109D01*
X105767850Y-50733109D02*
X105720231Y-50685489D01*
X106910707Y-49780728D02*
X107005945Y-49780728D01*
X107005945Y-49780728D02*
X107101183Y-49828347D01*
X107101183Y-49828347D02*
X107148802Y-49875966D01*
X107148802Y-49875966D02*
X107196421Y-49971204D01*
X107196421Y-49971204D02*
X107244040Y-50161680D01*
X107244040Y-50161680D02*
X107244040Y-50399775D01*
X107244040Y-50399775D02*
X107196421Y-50590251D01*
X107196421Y-50590251D02*
X107148802Y-50685489D01*
X107148802Y-50685489D02*
X107101183Y-50733109D01*
X107101183Y-50733109D02*
X107005945Y-50780728D01*
X107005945Y-50780728D02*
X106910707Y-50780728D01*
X106910707Y-50780728D02*
X106815469Y-50733109D01*
X106815469Y-50733109D02*
X106767850Y-50685489D01*
X106767850Y-50685489D02*
X106720231Y-50590251D01*
X106720231Y-50590251D02*
X106672612Y-50399775D01*
X106672612Y-50399775D02*
X106672612Y-50161680D01*
X106672612Y-50161680D02*
X106720231Y-49971204D01*
X106720231Y-49971204D02*
X106767850Y-49875966D01*
X106767850Y-49875966D02*
X106815469Y-49828347D01*
X106815469Y-49828347D02*
X106910707Y-49780728D01*
X108196421Y-50780728D02*
X107624993Y-50780728D01*
X107910707Y-50780728D02*
X107910707Y-49780728D01*
X107910707Y-49780728D02*
X107815469Y-49923585D01*
X107815469Y-49923585D02*
X107720231Y-50018823D01*
X107720231Y-50018823D02*
X107624993Y-50066442D01*
X100533333Y-42741775D02*
X100800000Y-43541775D01*
X100800000Y-43541775D02*
X101066666Y-42741775D01*
X101790476Y-43465584D02*
X101752380Y-43503680D01*
X101752380Y-43503680D02*
X101638095Y-43541775D01*
X101638095Y-43541775D02*
X101561904Y-43541775D01*
X101561904Y-43541775D02*
X101447618Y-43503680D01*
X101447618Y-43503680D02*
X101371428Y-43427489D01*
X101371428Y-43427489D02*
X101333333Y-43351299D01*
X101333333Y-43351299D02*
X101295237Y-43198918D01*
X101295237Y-43198918D02*
X101295237Y-43084632D01*
X101295237Y-43084632D02*
X101333333Y-42932251D01*
X101333333Y-42932251D02*
X101371428Y-42856060D01*
X101371428Y-42856060D02*
X101447618Y-42779870D01*
X101447618Y-42779870D02*
X101561904Y-42741775D01*
X101561904Y-42741775D02*
X101638095Y-42741775D01*
X101638095Y-42741775D02*
X101752380Y-42779870D01*
X101752380Y-42779870D02*
X101790476Y-42817965D01*
X102590476Y-43465584D02*
X102552380Y-43503680D01*
X102552380Y-43503680D02*
X102438095Y-43541775D01*
X102438095Y-43541775D02*
X102361904Y-43541775D01*
X102361904Y-43541775D02*
X102247618Y-43503680D01*
X102247618Y-43503680D02*
X102171428Y-43427489D01*
X102171428Y-43427489D02*
X102133333Y-43351299D01*
X102133333Y-43351299D02*
X102095237Y-43198918D01*
X102095237Y-43198918D02*
X102095237Y-43084632D01*
X102095237Y-43084632D02*
X102133333Y-42932251D01*
X102133333Y-42932251D02*
X102171428Y-42856060D01*
X102171428Y-42856060D02*
X102247618Y-42779870D01*
X102247618Y-42779870D02*
X102361904Y-42741775D01*
X102361904Y-42741775D02*
X102438095Y-42741775D01*
X102438095Y-42741775D02*
X102552380Y-42779870D01*
X102552380Y-42779870D02*
X102590476Y-42817965D01*
X65068571Y-71481775D02*
X65068571Y-70681775D01*
X65068571Y-70681775D02*
X65259047Y-70681775D01*
X65259047Y-70681775D02*
X65373333Y-70719870D01*
X65373333Y-70719870D02*
X65449523Y-70796060D01*
X65449523Y-70796060D02*
X65487618Y-70872251D01*
X65487618Y-70872251D02*
X65525714Y-71024632D01*
X65525714Y-71024632D02*
X65525714Y-71138918D01*
X65525714Y-71138918D02*
X65487618Y-71291299D01*
X65487618Y-71291299D02*
X65449523Y-71367489D01*
X65449523Y-71367489D02*
X65373333Y-71443680D01*
X65373333Y-71443680D02*
X65259047Y-71481775D01*
X65259047Y-71481775D02*
X65068571Y-71481775D01*
X65830475Y-70757965D02*
X65868571Y-70719870D01*
X65868571Y-70719870D02*
X65944761Y-70681775D01*
X65944761Y-70681775D02*
X66135237Y-70681775D01*
X66135237Y-70681775D02*
X66211428Y-70719870D01*
X66211428Y-70719870D02*
X66249523Y-70757965D01*
X66249523Y-70757965D02*
X66287618Y-70834156D01*
X66287618Y-70834156D02*
X66287618Y-70910346D01*
X66287618Y-70910346D02*
X66249523Y-71024632D01*
X66249523Y-71024632D02*
X65792380Y-71481775D01*
X65792380Y-71481775D02*
X66287618Y-71481775D01*
X67049523Y-71481775D02*
X66592380Y-71481775D01*
X66820952Y-71481775D02*
X66820952Y-70681775D01*
X66820952Y-70681775D02*
X66744761Y-70796060D01*
X66744761Y-70796060D02*
X66668571Y-70872251D01*
X66668571Y-70872251D02*
X66592380Y-70910346D01*
X54908571Y-41001775D02*
X54908571Y-40201775D01*
X54908571Y-40201775D02*
X55099047Y-40201775D01*
X55099047Y-40201775D02*
X55213333Y-40239870D01*
X55213333Y-40239870D02*
X55289523Y-40316060D01*
X55289523Y-40316060D02*
X55327618Y-40392251D01*
X55327618Y-40392251D02*
X55365714Y-40544632D01*
X55365714Y-40544632D02*
X55365714Y-40658918D01*
X55365714Y-40658918D02*
X55327618Y-40811299D01*
X55327618Y-40811299D02*
X55289523Y-40887489D01*
X55289523Y-40887489D02*
X55213333Y-40963680D01*
X55213333Y-40963680D02*
X55099047Y-41001775D01*
X55099047Y-41001775D02*
X54908571Y-41001775D01*
X55670475Y-40277965D02*
X55708571Y-40239870D01*
X55708571Y-40239870D02*
X55784761Y-40201775D01*
X55784761Y-40201775D02*
X55975237Y-40201775D01*
X55975237Y-40201775D02*
X56051428Y-40239870D01*
X56051428Y-40239870D02*
X56089523Y-40277965D01*
X56089523Y-40277965D02*
X56127618Y-40354156D01*
X56127618Y-40354156D02*
X56127618Y-40430346D01*
X56127618Y-40430346D02*
X56089523Y-40544632D01*
X56089523Y-40544632D02*
X55632380Y-41001775D01*
X55632380Y-41001775D02*
X56127618Y-41001775D01*
X56813333Y-40201775D02*
X56660952Y-40201775D01*
X56660952Y-40201775D02*
X56584761Y-40239870D01*
X56584761Y-40239870D02*
X56546666Y-40277965D01*
X56546666Y-40277965D02*
X56470476Y-40392251D01*
X56470476Y-40392251D02*
X56432380Y-40544632D01*
X56432380Y-40544632D02*
X56432380Y-40849394D01*
X56432380Y-40849394D02*
X56470476Y-40925584D01*
X56470476Y-40925584D02*
X56508571Y-40963680D01*
X56508571Y-40963680D02*
X56584761Y-41001775D01*
X56584761Y-41001775D02*
X56737142Y-41001775D01*
X56737142Y-41001775D02*
X56813333Y-40963680D01*
X56813333Y-40963680D02*
X56851428Y-40925584D01*
X56851428Y-40925584D02*
X56889523Y-40849394D01*
X56889523Y-40849394D02*
X56889523Y-40658918D01*
X56889523Y-40658918D02*
X56851428Y-40582727D01*
X56851428Y-40582727D02*
X56813333Y-40544632D01*
X56813333Y-40544632D02*
X56737142Y-40506537D01*
X56737142Y-40506537D02*
X56584761Y-40506537D01*
X56584761Y-40506537D02*
X56508571Y-40544632D01*
X56508571Y-40544632D02*
X56470476Y-40582727D01*
X56470476Y-40582727D02*
X56432380Y-40658918D01*
X75609524Y-40582727D02*
X75876190Y-40582727D01*
X75990476Y-41001775D02*
X75609524Y-41001775D01*
X75609524Y-41001775D02*
X75609524Y-40201775D01*
X75609524Y-40201775D02*
X75990476Y-40201775D01*
X76333334Y-41001775D02*
X76333334Y-40201775D01*
X76333334Y-40201775D02*
X76790477Y-41001775D01*
X76790477Y-41001775D02*
X76790477Y-40201775D01*
X91735739Y-69989299D02*
X91735739Y-70179775D01*
X92116691Y-69989299D02*
X92116691Y-70179775D01*
X92545263Y-70989299D02*
X92545263Y-69989299D01*
X92545263Y-70465489D02*
X93116691Y-70465489D01*
X93116691Y-70989299D02*
X93116691Y-69989299D01*
X94021453Y-70989299D02*
X94021453Y-70465489D01*
X94021453Y-70465489D02*
X93973834Y-70370251D01*
X93973834Y-70370251D02*
X93878596Y-70322632D01*
X93878596Y-70322632D02*
X93688120Y-70322632D01*
X93688120Y-70322632D02*
X93592882Y-70370251D01*
X94021453Y-70941680D02*
X93926215Y-70989299D01*
X93926215Y-70989299D02*
X93688120Y-70989299D01*
X93688120Y-70989299D02*
X93592882Y-70941680D01*
X93592882Y-70941680D02*
X93545263Y-70846441D01*
X93545263Y-70846441D02*
X93545263Y-70751203D01*
X93545263Y-70751203D02*
X93592882Y-70655965D01*
X93592882Y-70655965D02*
X93688120Y-70608346D01*
X93688120Y-70608346D02*
X93926215Y-70608346D01*
X93926215Y-70608346D02*
X94021453Y-70560727D01*
X94402406Y-70322632D02*
X94640501Y-70989299D01*
X94640501Y-70989299D02*
X94878596Y-70322632D01*
X95640501Y-70941680D02*
X95545263Y-70989299D01*
X95545263Y-70989299D02*
X95354787Y-70989299D01*
X95354787Y-70989299D02*
X95259549Y-70941680D01*
X95259549Y-70941680D02*
X95211930Y-70846441D01*
X95211930Y-70846441D02*
X95211930Y-70465489D01*
X95211930Y-70465489D02*
X95259549Y-70370251D01*
X95259549Y-70370251D02*
X95354787Y-70322632D01*
X95354787Y-70322632D02*
X95545263Y-70322632D01*
X95545263Y-70322632D02*
X95640501Y-70370251D01*
X95640501Y-70370251D02*
X95688120Y-70465489D01*
X95688120Y-70465489D02*
X95688120Y-70560727D01*
X95688120Y-70560727D02*
X95211930Y-70655965D01*
X96735740Y-70322632D02*
X97116692Y-70322632D01*
X96878597Y-69989299D02*
X96878597Y-70846441D01*
X96878597Y-70846441D02*
X96926216Y-70941680D01*
X96926216Y-70941680D02*
X97021454Y-70989299D01*
X97021454Y-70989299D02*
X97116692Y-70989299D01*
X97450026Y-70989299D02*
X97450026Y-69989299D01*
X97878597Y-70989299D02*
X97878597Y-70465489D01*
X97878597Y-70465489D02*
X97830978Y-70370251D01*
X97830978Y-70370251D02*
X97735740Y-70322632D01*
X97735740Y-70322632D02*
X97592883Y-70322632D01*
X97592883Y-70322632D02*
X97497645Y-70370251D01*
X97497645Y-70370251D02*
X97450026Y-70417870D01*
X98735740Y-70941680D02*
X98640502Y-70989299D01*
X98640502Y-70989299D02*
X98450026Y-70989299D01*
X98450026Y-70989299D02*
X98354788Y-70941680D01*
X98354788Y-70941680D02*
X98307169Y-70846441D01*
X98307169Y-70846441D02*
X98307169Y-70465489D01*
X98307169Y-70465489D02*
X98354788Y-70370251D01*
X98354788Y-70370251D02*
X98450026Y-70322632D01*
X98450026Y-70322632D02*
X98640502Y-70322632D01*
X98640502Y-70322632D02*
X98735740Y-70370251D01*
X98735740Y-70370251D02*
X98783359Y-70465489D01*
X98783359Y-70465489D02*
X98783359Y-70560727D01*
X98783359Y-70560727D02*
X98307169Y-70655965D01*
X100402407Y-70989299D02*
X100402407Y-69989299D01*
X100402407Y-70941680D02*
X100307169Y-70989299D01*
X100307169Y-70989299D02*
X100116693Y-70989299D01*
X100116693Y-70989299D02*
X100021455Y-70941680D01*
X100021455Y-70941680D02*
X99973836Y-70894060D01*
X99973836Y-70894060D02*
X99926217Y-70798822D01*
X99926217Y-70798822D02*
X99926217Y-70513108D01*
X99926217Y-70513108D02*
X99973836Y-70417870D01*
X99973836Y-70417870D02*
X100021455Y-70370251D01*
X100021455Y-70370251D02*
X100116693Y-70322632D01*
X100116693Y-70322632D02*
X100307169Y-70322632D01*
X100307169Y-70322632D02*
X100402407Y-70370251D01*
X101021455Y-70989299D02*
X100926217Y-70941680D01*
X100926217Y-70941680D02*
X100878598Y-70894060D01*
X100878598Y-70894060D02*
X100830979Y-70798822D01*
X100830979Y-70798822D02*
X100830979Y-70513108D01*
X100830979Y-70513108D02*
X100878598Y-70417870D01*
X100878598Y-70417870D02*
X100926217Y-70370251D01*
X100926217Y-70370251D02*
X101021455Y-70322632D01*
X101021455Y-70322632D02*
X101164312Y-70322632D01*
X101164312Y-70322632D02*
X101259550Y-70370251D01*
X101259550Y-70370251D02*
X101307169Y-70417870D01*
X101307169Y-70417870D02*
X101354788Y-70513108D01*
X101354788Y-70513108D02*
X101354788Y-70798822D01*
X101354788Y-70798822D02*
X101307169Y-70894060D01*
X101307169Y-70894060D02*
X101259550Y-70941680D01*
X101259550Y-70941680D02*
X101164312Y-70989299D01*
X101164312Y-70989299D02*
X101021455Y-70989299D01*
X102211931Y-70322632D02*
X102211931Y-71132156D01*
X102211931Y-71132156D02*
X102164312Y-71227394D01*
X102164312Y-71227394D02*
X102116693Y-71275013D01*
X102116693Y-71275013D02*
X102021455Y-71322632D01*
X102021455Y-71322632D02*
X101878598Y-71322632D01*
X101878598Y-71322632D02*
X101783360Y-71275013D01*
X102211931Y-70941680D02*
X102116693Y-70989299D01*
X102116693Y-70989299D02*
X101926217Y-70989299D01*
X101926217Y-70989299D02*
X101830979Y-70941680D01*
X101830979Y-70941680D02*
X101783360Y-70894060D01*
X101783360Y-70894060D02*
X101735741Y-70798822D01*
X101735741Y-70798822D02*
X101735741Y-70513108D01*
X101735741Y-70513108D02*
X101783360Y-70417870D01*
X101783360Y-70417870D02*
X101830979Y-70370251D01*
X101830979Y-70370251D02*
X101926217Y-70322632D01*
X101926217Y-70322632D02*
X102116693Y-70322632D01*
X102116693Y-70322632D02*
X102211931Y-70370251D01*
X102640503Y-70941680D02*
X102735741Y-70989299D01*
X102735741Y-70989299D02*
X102926217Y-70989299D01*
X102926217Y-70989299D02*
X103021455Y-70941680D01*
X103021455Y-70941680D02*
X103069074Y-70846441D01*
X103069074Y-70846441D02*
X103069074Y-70798822D01*
X103069074Y-70798822D02*
X103021455Y-70703584D01*
X103021455Y-70703584D02*
X102926217Y-70655965D01*
X102926217Y-70655965D02*
X102783360Y-70655965D01*
X102783360Y-70655965D02*
X102688122Y-70608346D01*
X102688122Y-70608346D02*
X102640503Y-70513108D01*
X102640503Y-70513108D02*
X102640503Y-70465489D01*
X102640503Y-70465489D02*
X102688122Y-70370251D01*
X102688122Y-70370251D02*
X102783360Y-70322632D01*
X102783360Y-70322632D02*
X102926217Y-70322632D01*
X102926217Y-70322632D02*
X103021455Y-70370251D01*
X104259551Y-70989299D02*
X104259551Y-69989299D01*
X104259551Y-70370251D02*
X104354789Y-70322632D01*
X104354789Y-70322632D02*
X104545265Y-70322632D01*
X104545265Y-70322632D02*
X104640503Y-70370251D01*
X104640503Y-70370251D02*
X104688122Y-70417870D01*
X104688122Y-70417870D02*
X104735741Y-70513108D01*
X104735741Y-70513108D02*
X104735741Y-70798822D01*
X104735741Y-70798822D02*
X104688122Y-70894060D01*
X104688122Y-70894060D02*
X104640503Y-70941680D01*
X104640503Y-70941680D02*
X104545265Y-70989299D01*
X104545265Y-70989299D02*
X104354789Y-70989299D01*
X104354789Y-70989299D02*
X104259551Y-70941680D01*
X105545265Y-70941680D02*
X105450027Y-70989299D01*
X105450027Y-70989299D02*
X105259551Y-70989299D01*
X105259551Y-70989299D02*
X105164313Y-70941680D01*
X105164313Y-70941680D02*
X105116694Y-70846441D01*
X105116694Y-70846441D02*
X105116694Y-70465489D01*
X105116694Y-70465489D02*
X105164313Y-70370251D01*
X105164313Y-70370251D02*
X105259551Y-70322632D01*
X105259551Y-70322632D02*
X105450027Y-70322632D01*
X105450027Y-70322632D02*
X105545265Y-70370251D01*
X105545265Y-70370251D02*
X105592884Y-70465489D01*
X105592884Y-70465489D02*
X105592884Y-70560727D01*
X105592884Y-70560727D02*
X105116694Y-70655965D01*
X106402408Y-70941680D02*
X106307170Y-70989299D01*
X106307170Y-70989299D02*
X106116694Y-70989299D01*
X106116694Y-70989299D02*
X106021456Y-70941680D01*
X106021456Y-70941680D02*
X105973837Y-70846441D01*
X105973837Y-70846441D02*
X105973837Y-70465489D01*
X105973837Y-70465489D02*
X106021456Y-70370251D01*
X106021456Y-70370251D02*
X106116694Y-70322632D01*
X106116694Y-70322632D02*
X106307170Y-70322632D01*
X106307170Y-70322632D02*
X106402408Y-70370251D01*
X106402408Y-70370251D02*
X106450027Y-70465489D01*
X106450027Y-70465489D02*
X106450027Y-70560727D01*
X106450027Y-70560727D02*
X105973837Y-70655965D01*
X106878599Y-70322632D02*
X106878599Y-70989299D01*
X106878599Y-70417870D02*
X106926218Y-70370251D01*
X106926218Y-70370251D02*
X107021456Y-70322632D01*
X107021456Y-70322632D02*
X107164313Y-70322632D01*
X107164313Y-70322632D02*
X107259551Y-70370251D01*
X107259551Y-70370251D02*
X107307170Y-70465489D01*
X107307170Y-70465489D02*
X107307170Y-70989299D01*
X108402409Y-70322632D02*
X108783361Y-70322632D01*
X108545266Y-70989299D02*
X108545266Y-70132156D01*
X108545266Y-70132156D02*
X108592885Y-70036918D01*
X108592885Y-70036918D02*
X108688123Y-69989299D01*
X108688123Y-69989299D02*
X108783361Y-69989299D01*
X109497647Y-70941680D02*
X109402409Y-70989299D01*
X109402409Y-70989299D02*
X109211933Y-70989299D01*
X109211933Y-70989299D02*
X109116695Y-70941680D01*
X109116695Y-70941680D02*
X109069076Y-70846441D01*
X109069076Y-70846441D02*
X109069076Y-70465489D01*
X109069076Y-70465489D02*
X109116695Y-70370251D01*
X109116695Y-70370251D02*
X109211933Y-70322632D01*
X109211933Y-70322632D02*
X109402409Y-70322632D01*
X109402409Y-70322632D02*
X109497647Y-70370251D01*
X109497647Y-70370251D02*
X109545266Y-70465489D01*
X109545266Y-70465489D02*
X109545266Y-70560727D01*
X109545266Y-70560727D02*
X109069076Y-70655965D01*
X110402409Y-70989299D02*
X110402409Y-69989299D01*
X110402409Y-70941680D02*
X110307171Y-70989299D01*
X110307171Y-70989299D02*
X110116695Y-70989299D01*
X110116695Y-70989299D02*
X110021457Y-70941680D01*
X110021457Y-70941680D02*
X109973838Y-70894060D01*
X109973838Y-70894060D02*
X109926219Y-70798822D01*
X109926219Y-70798822D02*
X109926219Y-70513108D01*
X109926219Y-70513108D02*
X109973838Y-70417870D01*
X109973838Y-70417870D02*
X110021457Y-70370251D01*
X110021457Y-70370251D02*
X110116695Y-70322632D01*
X110116695Y-70322632D02*
X110307171Y-70322632D01*
X110307171Y-70322632D02*
X110402409Y-70370251D01*
X111021457Y-70894060D02*
X111069076Y-70941680D01*
X111069076Y-70941680D02*
X111021457Y-70989299D01*
X111021457Y-70989299D02*
X110973838Y-70941680D01*
X110973838Y-70941680D02*
X111021457Y-70894060D01*
X111021457Y-70894060D02*
X111021457Y-70989299D01*
X110830981Y-70036918D02*
X110926219Y-69989299D01*
X110926219Y-69989299D02*
X111164314Y-69989299D01*
X111164314Y-69989299D02*
X111259552Y-70036918D01*
X111259552Y-70036918D02*
X111307171Y-70132156D01*
X111307171Y-70132156D02*
X111307171Y-70227394D01*
X111307171Y-70227394D02*
X111259552Y-70322632D01*
X111259552Y-70322632D02*
X111211933Y-70370251D01*
X111211933Y-70370251D02*
X111116695Y-70417870D01*
X111116695Y-70417870D02*
X111069076Y-70465489D01*
X111069076Y-70465489D02*
X111021457Y-70560727D01*
X111021457Y-70560727D02*
X111021457Y-70608346D01*
X111688124Y-69989299D02*
X111688124Y-70179775D01*
X112069076Y-69989299D02*
X112069076Y-70179775D01*
X62528571Y-81641775D02*
X62528571Y-80841775D01*
X62528571Y-80841775D02*
X62719047Y-80841775D01*
X62719047Y-80841775D02*
X62833333Y-80879870D01*
X62833333Y-80879870D02*
X62909523Y-80956060D01*
X62909523Y-80956060D02*
X62947618Y-81032251D01*
X62947618Y-81032251D02*
X62985714Y-81184632D01*
X62985714Y-81184632D02*
X62985714Y-81298918D01*
X62985714Y-81298918D02*
X62947618Y-81451299D01*
X62947618Y-81451299D02*
X62909523Y-81527489D01*
X62909523Y-81527489D02*
X62833333Y-81603680D01*
X62833333Y-81603680D02*
X62719047Y-81641775D01*
X62719047Y-81641775D02*
X62528571Y-81641775D01*
X63747618Y-81641775D02*
X63290475Y-81641775D01*
X63519047Y-81641775D02*
X63519047Y-80841775D01*
X63519047Y-80841775D02*
X63442856Y-80956060D01*
X63442856Y-80956060D02*
X63366666Y-81032251D01*
X63366666Y-81032251D02*
X63290475Y-81070346D01*
X64204761Y-81184632D02*
X64128571Y-81146537D01*
X64128571Y-81146537D02*
X64090476Y-81108441D01*
X64090476Y-81108441D02*
X64052380Y-81032251D01*
X64052380Y-81032251D02*
X64052380Y-80994156D01*
X64052380Y-80994156D02*
X64090476Y-80917965D01*
X64090476Y-80917965D02*
X64128571Y-80879870D01*
X64128571Y-80879870D02*
X64204761Y-80841775D01*
X64204761Y-80841775D02*
X64357142Y-80841775D01*
X64357142Y-80841775D02*
X64433333Y-80879870D01*
X64433333Y-80879870D02*
X64471428Y-80917965D01*
X64471428Y-80917965D02*
X64509523Y-80994156D01*
X64509523Y-80994156D02*
X64509523Y-81032251D01*
X64509523Y-81032251D02*
X64471428Y-81108441D01*
X64471428Y-81108441D02*
X64433333Y-81146537D01*
X64433333Y-81146537D02*
X64357142Y-81184632D01*
X64357142Y-81184632D02*
X64204761Y-81184632D01*
X64204761Y-81184632D02*
X64128571Y-81222727D01*
X64128571Y-81222727D02*
X64090476Y-81260822D01*
X64090476Y-81260822D02*
X64052380Y-81337013D01*
X64052380Y-81337013D02*
X64052380Y-81489394D01*
X64052380Y-81489394D02*
X64090476Y-81565584D01*
X64090476Y-81565584D02*
X64128571Y-81603680D01*
X64128571Y-81603680D02*
X64204761Y-81641775D01*
X64204761Y-81641775D02*
X64357142Y-81641775D01*
X64357142Y-81641775D02*
X64433333Y-81603680D01*
X64433333Y-81603680D02*
X64471428Y-81565584D01*
X64471428Y-81565584D02*
X64509523Y-81489394D01*
X64509523Y-81489394D02*
X64509523Y-81337013D01*
X64509523Y-81337013D02*
X64471428Y-81260822D01*
X64471428Y-81260822D02*
X64433333Y-81222727D01*
X64433333Y-81222727D02*
X64357142Y-81184632D01*
X39649523Y-70681775D02*
X40144761Y-70681775D01*
X40144761Y-70681775D02*
X39878095Y-70986537D01*
X39878095Y-70986537D02*
X39992380Y-70986537D01*
X39992380Y-70986537D02*
X40068571Y-71024632D01*
X40068571Y-71024632D02*
X40106666Y-71062727D01*
X40106666Y-71062727D02*
X40144761Y-71138918D01*
X40144761Y-71138918D02*
X40144761Y-71329394D01*
X40144761Y-71329394D02*
X40106666Y-71405584D01*
X40106666Y-71405584D02*
X40068571Y-71443680D01*
X40068571Y-71443680D02*
X39992380Y-71481775D01*
X39992380Y-71481775D02*
X39763809Y-71481775D01*
X39763809Y-71481775D02*
X39687618Y-71443680D01*
X39687618Y-71443680D02*
X39649523Y-71405584D01*
X40373333Y-70681775D02*
X40640000Y-71481775D01*
X40640000Y-71481775D02*
X40906666Y-70681775D01*
X41097142Y-70681775D02*
X41592380Y-70681775D01*
X41592380Y-70681775D02*
X41325714Y-70986537D01*
X41325714Y-70986537D02*
X41439999Y-70986537D01*
X41439999Y-70986537D02*
X41516190Y-71024632D01*
X41516190Y-71024632D02*
X41554285Y-71062727D01*
X41554285Y-71062727D02*
X41592380Y-71138918D01*
X41592380Y-71138918D02*
X41592380Y-71329394D01*
X41592380Y-71329394D02*
X41554285Y-71405584D01*
X41554285Y-71405584D02*
X41516190Y-71443680D01*
X41516190Y-71443680D02*
X41439999Y-71481775D01*
X41439999Y-71481775D02*
X41211428Y-71481775D01*
X41211428Y-71481775D02*
X41135237Y-71443680D01*
X41135237Y-71443680D02*
X41097142Y-71405584D01*
X52368571Y-41001775D02*
X52368571Y-40201775D01*
X52368571Y-40201775D02*
X52559047Y-40201775D01*
X52559047Y-40201775D02*
X52673333Y-40239870D01*
X52673333Y-40239870D02*
X52749523Y-40316060D01*
X52749523Y-40316060D02*
X52787618Y-40392251D01*
X52787618Y-40392251D02*
X52825714Y-40544632D01*
X52825714Y-40544632D02*
X52825714Y-40658918D01*
X52825714Y-40658918D02*
X52787618Y-40811299D01*
X52787618Y-40811299D02*
X52749523Y-40887489D01*
X52749523Y-40887489D02*
X52673333Y-40963680D01*
X52673333Y-40963680D02*
X52559047Y-41001775D01*
X52559047Y-41001775D02*
X52368571Y-41001775D01*
X53130475Y-40277965D02*
X53168571Y-40239870D01*
X53168571Y-40239870D02*
X53244761Y-40201775D01*
X53244761Y-40201775D02*
X53435237Y-40201775D01*
X53435237Y-40201775D02*
X53511428Y-40239870D01*
X53511428Y-40239870D02*
X53549523Y-40277965D01*
X53549523Y-40277965D02*
X53587618Y-40354156D01*
X53587618Y-40354156D02*
X53587618Y-40430346D01*
X53587618Y-40430346D02*
X53549523Y-40544632D01*
X53549523Y-40544632D02*
X53092380Y-41001775D01*
X53092380Y-41001775D02*
X53587618Y-41001775D01*
X53854285Y-40201775D02*
X54387619Y-40201775D01*
X54387619Y-40201775D02*
X54044761Y-41001775D01*
M02*
