M48
INCH,TZ
T1C0.0197
T2C0.0315
%
G90
G05
T2
X16000Y-17000
X16000Y-27000
X17000Y-17000
X17000Y-27000
X18000Y-17000
X18000Y-27000
X19000Y-17000
X19000Y-27000
X20000Y-17000
X20000Y-27000
X21000Y-17000
X21000Y-27000
X22000Y-17000
X22000Y-27000
X23000Y-17000
X23000Y-27000
X24000Y-17000
X24000Y-27000
X25000Y-17000
X25000Y-27000
X26000Y-17000
X26000Y-27000
X27000Y-17000
X27000Y-27000
X28000Y-17000
X28000Y-27000
X29000Y-17000
X29000Y-27000
X30000Y-17000
X30000Y-27000
X40000Y-18000
X41000Y-18000
X42000Y-18000
X48000Y-20000
X48000Y-21000
X48000Y-22000
X48000Y-23000
X48000Y-24000
T1
G00X17148Y-33000
M15
G01X16852Y-33000
M16
G05
G00X17148Y-38000
M15
G01X16852Y-38000
M16
G05
G00X17148Y-38000
M15
G01X16852Y-38000
M16
G05
G00X19148Y-33000
M15
G01X18852Y-33000
M16
G05
G00X19148Y-33000
M15
G01X18852Y-33000
M16
G05
G00X19148Y-38000
M15
G01X18852Y-38000
M16
G05
G00X19148Y-38000
M15
G01X18852Y-38000
M16
G05
G00X23148Y-33000
M15
G01X22852Y-33000
M16
G05
G00X23148Y-38000
M15
G01X22852Y-38000
M16
G05
G00X23148Y-38000
M15
G01X22852Y-38000
M16
G05
G00X25148Y-33000
M15
G01X24852Y-33000
M16
G05
G00X25148Y-33000
M15
G01X24852Y-33000
M16
G05
G00X25148Y-38000
M15
G01X24852Y-38000
M16
G05
G00X25148Y-38000
M15
G01X24852Y-38000
M16
G05
G00X29148Y-33000
M15
G01X28852Y-33000
M16
G05
G00X29148Y-38000
M15
G01X28852Y-38000
M16
G05
G00X29148Y-38000
M15
G01X28852Y-38000
M16
G05
G00X31148Y-33000
M15
G01X30852Y-33000
M16
G05
G00X31148Y-33000
M15
G01X30852Y-33000
M16
G05
G00X31148Y-38000
M15
G01X30852Y-38000
M16
G05
G00X31148Y-38000
M15
G01X30852Y-38000
M16
G05
G00X35148Y-33000
M15
G01X34852Y-33000
M16
G05
G00X35148Y-38000
M15
G01X34852Y-38000
M16
G05
G00X35148Y-38000
M15
G01X34852Y-38000
M16
G05
G00X37148Y-33000
M15
G01X36852Y-33000
M16
G05
G00X37148Y-33000
M15
G01X36852Y-33000
M16
G05
G00X37148Y-38000
M15
G01X36852Y-38000
M16
G05
G00X37148Y-38000
M15
G01X36852Y-38000
M16
G05
G00X41148Y-33000
M15
G01X40852Y-33000
M16
G05
G00X41148Y-38000
M15
G01X40852Y-38000
M16
G05
G00X41148Y-38000
M15
G01X40852Y-38000
M16
G05
G00X43148Y-33000
M15
G01X42852Y-33000
M16
G05
G00X43148Y-33000
M15
G01X42852Y-33000
M16
G05
G00X43148Y-38000
M15
G01X42852Y-38000
M16
G05
G00X43148Y-38000
M15
G01X42852Y-38000
M16
G05
G00X47148Y-33000
M15
G01X46852Y-33000
M16
G05
G00X47148Y-38000
M15
G01X46852Y-38000
M16
G05
G00X47148Y-38000
M15
G01X46852Y-38000
M16
G05
G00X49148Y-33000
M15
G01X48852Y-33000
M16
G05
G00X49148Y-33000
M15
G01X48852Y-33000
M16
G05
G00X49148Y-38000
M15
G01X48852Y-38000
M16
G05
G00X49148Y-38000
M15
G01X48852Y-38000
M16
G05
T0
M30
